<svg xmlns="http://www.w3.org/2000/svg" width="1280" height="720"><path fill="#F0E9DE" d="M0 0h1280v720H0V0Z"/><path fill="#282826" d="m383.552 226.746 2.655-.01c2.956-.009 5.912-.003 8.868.003l6.397-.011c5.876-.01 11.752-.008 17.628-.004 6.33.002 12.661-.007 18.992-.014 12.408-.013 24.817-.015 37.225-.012a49724.546 49724.546 0 0 0 41.13-.01c20.283-.008 40.565-.012 60.848-.008h2.318a806640.505 806640.505 0 0 1 18.637.005c24.235.005 48.47-.003 72.706-.021a89869.029 89869.029 0 0 1 90.347-.027h2.164c10.794.002 21.587-.005 32.38-.015 12.271-.012 24.542-.014 36.813-.002 6.265.006 12.53.007 18.795-.005 5.73-.01 11.459-.007 17.189.007 2.078.002 4.156 0 6.234-.008 2.815-.01 5.629-.002 8.444.011l2.47-.022c4.593.044 7.558.55 11.208 3.397 4.443 5.04 4.577 9.222 4.53 15.62l.027 2.903c.024 3.187.02 6.372.017 9.559.012 2.26.026 4.52.042 6.78.03 4.813.048 9.626.056 14.44.013 7.526.051 15.052.095 22.579.043 7.554.086 15.109.118 22.664.065 14.658.177 29.314.388 43.97l.037 2.543c.08 5.502.165 11.003.252 16.504.319 20.149.503 40.287.438 60.438l1.68-.014a9373.68 9373.68 0 0 1 40.541-.245c6.535-.026 13.07-.061 19.606-.118 6.309-.055 12.617-.084 18.926-.097 2.405-.01 4.81-.028 7.215-.055a881.78 881.78 0 0 1 10.118-.039l3.001-.054c6.366.047 11.172 1.158 15.913 5.622 3.592 4.47 3.424 8.547 3.381 14.027l.014 2.76c.012 3.052.003 6.104-.007 9.156a4569.886 4569.886 0 0 1 .015 24.396c-.008 6.218 0 12.436.004 18.654.006 11.113-.003 22.225-.019 33.338-.013 10.072-.01 20.143.003 30.215.016 11.7.022 23.399.013 35.098-.004 6.192-.005 12.384.005 18.576.009 5.822.003 11.643-.015 17.465-.004 2.138-.003 4.275.004 6.412.008 2.917-.002 5.833-.017 8.75l.02 2.565c-.049 4.932-.668 8.317-3.401 12.588-4.358 3.728-7.437 4.495-13.107 4.454l-2.072.002c-2.24-.003-4.48-.034-6.72-.065-1.56-.008-3.121-.014-4.682-.018-4.094-.015-8.187-.054-12.28-.098-4.183-.041-8.366-.06-12.55-.08A4857.52 4857.52 0 0 1 944 691v-6l2.561-.018c7.961-.058 15.921-.13 23.882-.218 4.093-.044 8.185-.084 12.278-.11 3.949-.026 7.897-.067 11.846-.117 1.507-.017 3.015-.028 4.522-.035 2.11-.01 4.219-.037 6.328-.07l3.64-.033c3.3-.447 3.951-.85 5.943-3.399.295-2.992.404-5.776.381-8.769l.014-2.748c.012-3.052.003-6.103-.007-9.155.004-2.183.01-4.365.016-6.548.014-5.938.008-11.876-.001-17.814-.008-6.204 0-12.409.004-18.613.006-11.09-.003-22.178-.019-33.267-.013-10.059-.01-20.117.003-30.176.016-11.675.022-23.35.013-35.024-.004-6.183-.005-12.365.005-18.547.009-5.811.003-11.622-.015-17.433-.004-2.137-.003-4.274.004-6.411.008-2.91-.002-5.818-.017-8.726l.02-2.585c.058-4.189.058-4.189-1.613-7.9-2.374-1.705-3.859-1.659-6.772-1.659l-3.136-.022-3.458.023-3.664-.012a1769.24 1769.24 0 0 0-10.087.008c-3.624.01-7.247 0-10.871-.005a6990.81 6990.81 0 0 0-21.304.009c-8.265.013-16.53.012-24.794.01-14.743-.003-29.485.008-44.228.028-14.316.019-28.632.026-42.948.02a41770.853 41770.853 0 0 0-51.712.01l-2.476.001c-5.765.004-11.53.004-17.295.002-7.022-.002-14.045.003-21.067.017-3.585.008-7.17.012-10.756.007-3.88-.005-7.761.006-11.642.018l-3.458-.011-3.136.018-2.717.002c-2.548.107-2.548.107-5.267 2.252-.3 2.964-.404 5.72-.381 8.686l-.014 2.759c-.012 3.068-.003 6.136.007 9.205-.004 2.193-.01 4.385-.016 6.577a4604.6 4604.6 0 0 0 .001 17.907c.008 6.235 0 12.47-.004 18.706-.006 11.146.003 22.291.019 33.437.013 10.11.01 20.22-.003 30.33-.016 11.733-.022 23.465-.013 35.198.004 6.213.005 12.427-.005 18.64-.009 5.842-.003 11.683.015 17.525.004 2.148.003 4.296-.004 6.445a1107.4 1107.4 0 0 0 .017 8.772l-.02 2.598c-.074 4.233-.074 4.233 1.69 7.931 2.992 2.246 6.673 1.704 10.272 1.683l2.68.02c2.976.019 5.952.016 8.928.013l6.385.031c5.79.028 11.578.037 17.367.043 6.046.01 12.092.036 18.137.06 11.454.044 22.907.072 34.36.095 13.038.027 26.075.071 39.113.117 26.823.093 53.646.164 80.469.222v6c-28.268.14-56.536.246-84.805.31-13.125.032-26.25.074-39.376.143-11.441.06-22.882.098-34.323.112-6.057.007-12.114.026-18.172.07-5.703.04-11.407.053-17.11.044a613.14 613.14 0 0 0-6.273.036c-19.06.2-19.06.2-25.614-5.133-2.621-3.124-2.445-6.236-2.425-10.125l.01-3.252.025-3.393.014-3.427c.012-2.795.028-5.59.049-8.385-11.336.388-22.664.832-33.984 1.547l-2.298.143c-3.76.236-7.52.48-11.278.737-1.4.09-2.799.18-4.198.268-1.228.083-2.457.166-3.723.25-3.626.057-6.942-.383-10.519-.945-1.64-.084-3.28-.13-4.922-.133l-2.805-.006-3.023.014-3.224.006c-11.152.057-22.296.392-33.441.763l-4.245.137-2.089.068c-6.223.184-12.438.151-18.663.07-3.612.003-3.612.003-7.237.645-3.234.42-5.225.161-8.351-.564-1.71-.004-3.42.05-5.125.156l-2.89.16-2.985.184c-1.958.12-3.916.235-5.875.344l-2.617.162C528 662 528 662 525.642 661.508c-2.55-.49-4.832-.635-7.424-.637l-2.818-.01-3.04.006-3.212-.004c-3.466-.002-6.932.005-10.398.012l-3.565.003c-22.072.02-44.124.43-66.185 1.122l-.155 3.099a7238.22 7238.22 0 0 1-.232 4.077l-.098 2.036c-.414 6.956-2.178 12.126-6.765 17.35L420 690l2 2c-1.964 1.964-4.983 1.12-7.597 1.124l-2.88-.01h-3.015c-3.306 0-6.612-.009-9.918-.016l-6.856-.005c-6.029-.003-12.057-.013-18.086-.024-6.146-.01-12.293-.015-18.439-.02-12.07-.01-24.14-.028-36.209-.049v-2l6-1-2.313-1.563c-4.272-3.875-5.527-7.777-6.067-13.371-.018-1.46-.02-2.918-.008-4.378l-.016-2.453c-.014-2.698-.007-5.396 0-8.094l-.02-5.822c-.019-5.26-.018-10.52-.012-15.78.003-4.394-.003-8.788-.009-13.181-.014-10.366-.012-20.731-.001-31.096.011-10.69-.003-21.38-.03-32.07-.022-9.183-.028-18.366-.022-27.55.003-5.482 0-10.965-.017-16.447-.015-5.155-.011-10.31.008-15.464.003-1.89 0-3.78-.01-5.67a648.54 648.54 0 0 1 .016-7.75l-.03-2.258c.087-6.143 1.996-10.3 6.152-14.813 4.659-3.352 8.272-3.923 13.938-3.728l2.391.021c2.497.028 4.991.09 7.487.154 1.703.026 3.405.048 5.108.069 4.153.05 8.303.145 12.455.244l-.014-3.303c-.048-17.268.176-34.533.385-51.799.043-3.54.084-7.081.126-10.622.1-8.4.2-16.8.303-25.201.091-7.587.182-15.173.27-22.76.23-19.75.473-39.501.745-59.252.118-8.67.22-17.342.299-26.014.043-4.49.102-8.978.165-13.468.025-1.964.042-3.928.053-5.892.014-2.6.052-5.198.096-7.797l-.007-2.206c.122-4.981 1.384-7.888 4.579-11.686 3.792-2.715 8.084-2.279 12.552-2.254Z"/><path fill="#FDFDFD" d="m721.104 454.62 3.14-.026 3.447.018 3.665-.016c3.358-.012 6.716-.01 10.074-.003 3.621.005 7.242-.008 10.863-.018a6725.8 6725.8 0 0 1 21.283-.013c5.765.004 11.53.003 17.294-.002l2.484-.003 4.996-.004c15.623-.014 31.246-.009 46.87.003 14.3.01 28.601-.003 42.902-.027 14.677-.024 29.354-.034 44.03-.027 8.244.003 16.486 0 24.73-.017 7.016-.014 14.032-.015 21.048.002 3.582.009 7.163.011 10.744-.004 3.878-.017 7.756-.002 11.635.016l3.446-.03 3.141.03h2.714c3.211.673 4.405 1.932 6.39 4.501.388 3.083.532 5.807.494 8.889l.015 2.75c.011 3.05-.006 6.098-.023 9.146a3522.446 3522.446 0 0 1-.014 24.35c-.018 6.202-.015 12.404-.014 18.606-.002 11.082-.023 22.165-.052 33.247a11106.66 11106.66 0 0 0-.035 30.157c.001 12.914-.007 25.828-.025 38.742-.008 4.935-.011 9.87-.012 14.805a5574.77 5574.77 0 0 1-.035 17.42c-.005 2.136-.008 4.271-.007 6.407.001 2.906-.01 5.813-.025 8.72l.01 2.582c-.033 3.908-.06 5.853-2.277 9.179-2.898.36-2.898.36-6.653.34l-2.07.002a717.357 717.357 0 0 1-6.785-.049 2353.529 2353.529 0 0 1-17.079-.087c-4.209-.03-8.418-.044-12.628-.06-8.262-.032-16.523-.084-24.785-.146v-18h3l-1-3h-2v-9h10v-2h-10v-7h8l-2-3c-2.584-.25-2.584-.25-5 0-1.607-3.215-1.057-6.436-1-10h9l-1-7-8-1v-3h2v2h3l-1-3h12l1 5-1-27-16-2v-25h3v-3l-3 1v-9h10v-2h-10v-7c1.437-.054 2.875-.093 4.312-.125l2.426-.07C953 551 953 551 956 553v-6l-3 1c-1.673-.3-3.34-.636-5-1h-4v-20h3v8l2 1-1-9h3v11l2 1-.5-1.5c-.707-3.534-.56-6.897-.5-10.5h2v5l7 1v-4l-6 1v-3l2-1-.494-2.196c-.476-2.637-.62-4.994-.604-7.667l.01-2.686.025-2.764.014-2.822c.012-2.288.028-4.577.049-6.865h-8v14h-1v-15h-3l-1.313-2c-1.586-2.34-1.586-2.34-4.75-2.375-3.056.086-3.056.086-4.937 2.375a84.958 84.958 0 0 0-.278 7.34c-.01 1.148-.01 1.148-.018 2.319-.017 2.578-.02 5.156-.023 7.734l-.03 5.528c-.028 5.014-.043 10.028-.056 15.043-.015 5.235-.042 10.471-.068 15.707-.047 9.92-.083 19.84-.116 29.76-.039 11.29-.088 22.582-.138 33.873A68975.85 68975.85 0 0 0 932 685c-28.094.093-56.188.164-84.281.207-13.044.02-26.088.049-39.132.095-11.367.04-22.733.065-34.1.074-6.02.006-12.041.018-18.062.047-5.663.027-11.326.035-16.99.03-2.082 0-4.163.009-6.245.024-2.837.02-5.672.015-8.509.004l-2.511.035c-3.367-.035-5.752-.27-8.68-1.988-2.19-3.715-2.042-7.266-1.998-11.455l-.019-2.763c-.016-3.063-.003-6.125.01-9.187a3445.478 3445.478 0 0 1-.02-24.46c.01-6.23 0-12.46-.006-18.69-.008-11.132.005-22.265.025-33.398a8423.4 8423.4 0 0 0-.003-30.293c-.022-11.722-.03-23.445-.018-35.168.006-6.207.007-12.414-.006-18.62a2942.3 2942.3 0 0 1 .02-17.5c.005-2.145.003-4.29-.006-6.435-.01-2.92.003-5.84.023-8.76l-.027-2.594c.077-5.746.077-5.746 2.247-7.921 2.696-1.513 4.313-1.66 7.392-1.664Z"/><path fill="#C8C8C6" d="M396 469a566.91 566.91 0 0 1 9.625-.25l2.738-.102c5.762-.084 9.094.442 13.637 4.352 4.571 5.189 5.175 8.438 5.316 15.207l.063 2.531c.044 1.783.085 3.566.124 5.35.058 2.648.123 5.297.19 7.945.042 1.746.083 3.491.123 5.237.02.76.038 1.52.057 2.303.208 9.812.127 19.607.127 29.427h276v102l-2-4h-2c-2.455-10.57-4.417-21.101-5.75-31.875l-.386-3.113c-.522-4.406-.864-8.559-.864-13.012H575l-3 25c-3.64 23.899-3.64 23.899-9.438 29.25L559 647l-2.232 1.463c-11.765 6.802-24.912 5.287-38.069 5.123-2.65-.011-5.299-.02-7.948-.026-6.23-.018-12.459-.067-18.688-.128-7.1-.067-14.2-.1-21.301-.13A8902.275 8902.275 0 0 1 427 653l-.012 1.953a702.455 702.455 0 0 1-.175 8.922c-.01 1.52-.01 1.52-.018 3.07-.21 7.287-1.666 12.967-5.795 19.055-5.684 4.756-10.415 5.15-17.595 5.161l-2.303.015c-2.509.015-5.018.022-7.528.027l-5.246.017c-3.666.01-7.332.017-10.998.02-4.687.006-9.374.03-14.061.058-3.613.019-7.226.024-10.838.026-1.728.003-3.455.01-5.183.024-2.422.017-4.843.015-7.265.008l-2.143.028c-6.38-.053-10.83-1.68-15.715-5.822-3.701-4.462-3.274-8.91-3.272-14.52l-.011-2.447c-.011-2.71-.015-5.42-.019-8.13l-.02-5.824c-.02-6.378-.031-12.756-.041-19.133l-.013-6.586c-.019-10.31-.033-20.62-.041-30.93-.01-11.907-.036-23.813-.077-35.719-.03-9.2-.045-18.402-.048-27.603-.002-5.496-.011-10.993-.036-16.49-.024-5.169-.028-10.338-.018-15.507 0-1.897-.006-3.794-.02-5.691-.017-2.59-.01-5.18.003-7.77l-.033-2.274c.063-5.119 1.306-7.993 4.521-11.938 4.312-3.575 7.273-4.504 12.832-4.546l1.982-.031c2.143-.03 4.285-.031 6.428-.032 1.494-.015 2.987-.032 4.48-.05 3.917-.044 7.833-.064 11.749-.08 4.002-.019 8.004-.06 12.006-.1 7.84-.076 15.682-.126 23.523-.161v-1Z"/><path fill="#0C0E0E" d="M382 242h237c2 74 2 74 2 85l-4.355.586-5.832.789-2.85.383c-10.96 1.486-21.874 3.219-32.786 5.018-13.565 2.237-27.114 4.466-40.763 6.135-6.655.827-13.269 1.829-19.887 2.91l-6.653 1.073-3.441.555c-29.323 4.706-58.686 9.184-88.057 13.58-2.361.353-4.722.709-7.082 1.066-3.278.496-6.557.984-9.837 1.471l-2.912.444-2.714.398-2.33.349c-3.153.306-6.333.243-9.501.243V242Z"/><path fill="#393939" d="m337.48 470.482 2.516-.02c2.73-.018 5.46-.007 8.192.007l5.715-.012c3.988-.006 7.975.003 11.963.022 5.105.022 10.209.01 15.313-.015 3.933-.014 7.865-.01 11.798 0 1.882.003 3.763 0 5.645-.01 2.633-.01 5.265.006 7.898.028l2.342-.024c5.22.081 8.264 1.028 12.138 4.542 3.513 5.316 4.585 10.028 4.508 16.311l.019 2.417a740.54 740.54 0 0 1-.01 7.954 2596.87 2596.87 0 0 1 .02 21.242c-.01 5.419 0 10.837.006 16.256.007 9.1-.002 18.198-.022 27.297-.021 10.511-.014 21.022.008 31.533.018 9.034.02 18.067.01 27.101-.006 5.392-.007 10.783.006 16.174.012 5.07.004 10.139-.02 15.208-.005 1.858-.003 3.715.006 5.573a627.61 627.61 0 0 1-.023 7.623l.027 2.212c-.081 5.37-1.507 9.634-4.535 14.099-5.776 4.693-10.37 5.15-17.595 5.161l-2.303.015c-2.509.015-5.018.022-7.528.027l-5.246.017c-3.666.01-7.332.017-10.998.02-4.687.006-9.374.03-14.061.058-3.613.019-7.226.024-10.838.026-1.728.003-3.455.01-5.183.024-2.422.017-4.843.015-7.265.008l-2.143.028c-6.38-.053-10.83-1.68-15.715-5.822-3.701-4.462-3.274-8.91-3.272-14.52l-.011-2.447c-.011-2.71-.015-5.42-.019-8.13l-.02-5.824c-.02-6.378-.031-12.756-.041-19.133l-.013-6.586c-.019-10.31-.033-20.62-.041-30.93-.01-11.907-.036-23.813-.077-35.719-.03-9.2-.045-18.402-.048-27.603-.002-5.496-.011-10.993-.036-16.49-.024-5.169-.028-10.338-.018-15.507 0-1.897-.006-3.794-.02-5.691-.017-2.59-.01-5.18.003-7.77l-.033-2.274c.063-5.12 1.312-7.988 4.521-11.938 4.637-3.994 8.551-4.58 14.48-4.518Z"/><path fill="#626362" d="M364 448h1v21l6.254-.035c2.055-.008 4.111-.014 6.167-.02 1.4-.005 2.802-.012 4.203-.02 9.841-.06 19.563.289 29.376 1.075v1l-3.073.011c-9.563.037-19.127.095-28.69.173-4.917.04-9.833.072-14.75.087-4.747.015-9.493.05-14.239.097-1.809.015-3.618.023-5.428.024-2.537.002-5.074.03-7.612.062l-2.258-.015c-5.116.102-8.064 1.25-11.95 4.561-3.228 4.2-3.427 7.954-3.381 13.071l-.014 2.448c-.012 2.705-.003 5.409.007 8.113-.004 1.94-.01 3.88-.016 5.82a3590.75 3590.75 0 0 0 .001 15.806c.008 5.514 0 11.029-.004 16.543-.006 9.262.002 18.524.016 27.786.016 10.705.01 21.41-.006 32.114-.013 9.192-.015 18.384-.007 27.575.004 5.49.005 10.979-.005 16.468-.009 5.163-.003 10.325.015 15.488.004 1.894.003 3.787-.004 5.68-.008 2.588.002 5.175.017 7.763l-.02 2.262c.057 5.14 1.047 8.586 3.401 13.063 5.198 3.999 10.22 4.151 16.58 4.161l2.297.015c2.504.015 5.009.022 7.514.027l5.239.017c3.661.01 7.323.017 10.985.02 4.678.006 9.356.03 14.034.058 3.609.019 7.217.024 10.825.026 1.724.003 3.448.01 5.172.024 2.42.017 4.838.015 7.257.008l2.133.028c5.035-.041 9.539-.974 13.964-3.384 4.18-5.06 6.24-9.994 6.278-16.537l.034-3.335.007-3.63.03-3.844c.028-3.47.043-6.941.056-10.412.015-3.63.042-7.26.068-10.89.047-6.87.083-13.741.116-20.612.039-7.823.088-15.647.138-23.47.104-16.09.193-32.18.273-48.27h1v107c21.757.054 21.757.054 43.514.03 7.787-.023 15.574-.033 23.361 0 6.17.028 12.34.026 18.51-.008a732.84 732.84 0 0 1 9.78.009c21.84.55 21.84.55 40.835-9.031 6.804-10.398 7.66-23.553 9.125-35.563.332-2.668.67-5.336 1.008-8.003l.434-3.53C574 594 574 594 575 591h118c1.311 6.556 2.365 12.715 2.938 19.313.642 6.814 1.689 13.299 3.476 19.925.634 2.99.685 5.714.586 8.762h2l1 2 .01-2.852c.08-22.875.173-45.75.278-68.625.05-11.062.096-22.124.134-33.186.033-9.639.073-19.277.12-28.916.026-5.106.048-10.212.061-15.319.013-4.801.035-9.603.064-14.404.01-1.767.015-3.533.017-5.3.004-2.403.019-4.807.038-7.21l-.006-2.14c.056-4.82.056-4.82 2.284-7.048l-.003 3.5a195555.915 195555.915 0 0 0-.052 92.356v2.035c-.005 10.876-.013 21.753-.022 32.63-.01 11.158-.015 22.317-.017 33.476a19792.3 19792.3 0 0 1-.012 18.805c-.007 5.898-.009 11.795-.007 17.692 0 2.167-.002 4.334-.006 6.5-.005 2.955-.004 5.909-.001 8.863l-.01 2.609c.01 3.98.138 7.65 1.13 11.534-2-1-2-1-3-4a111.147 111.147 0 0 1-.098-5.543l.01-3.252.025-3.393.014-3.427c.012-2.795.028-5.59.049-8.385-11.336.388-22.664.832-33.984 1.547l-2.298.143c-3.76.236-7.52.48-11.278.737-1.4.09-2.799.18-4.198.268-1.228.083-2.457.166-3.723.25-3.626.057-6.942-.383-10.519-.945-1.64-.084-3.28-.13-4.922-.133l-2.805-.006-3.023.014-3.224.006c-11.152.057-22.296.392-33.441.763l-4.245.137-2.089.068c-6.223.184-12.438.151-18.663.07-3.612.003-3.612.003-7.237.645-3.234.42-5.225.161-8.351-.564-1.71-.004-3.42.05-5.125.156l-2.89.16-2.985.184c-1.958.12-3.916.235-5.875.344l-2.617.162C528 662 528 662 525.642 661.508c-2.55-.49-4.832-.635-7.424-.637l-2.818-.01-3.04.006-3.212-.004c-3.466-.002-6.932.005-10.398.012l-3.565.003c-22.072.02-44.124.43-66.185 1.122l-.155 3.099-.232 4.077-.098 2.036c-.414 6.956-2.178 12.126-6.765 17.35L420 690l2 2c-1.964 1.964-4.983 1.12-7.597 1.124l-2.88-.01h-3.015c-3.306 0-6.612-.009-9.918-.016l-6.856-.005a15101.6 15101.6 0 0 1-18.086-.024c-6.146-.01-12.293-.015-18.439-.02-12.07-.01-24.14-.028-36.209-.049v-2l6-1-2.313-1.563c-4.272-3.875-5.527-7.777-6.067-13.371-.018-1.46-.02-2.918-.008-4.378l-.016-2.453a1021.65 1021.65 0 0 1 0-8.094l-.02-5.822c-.019-5.26-.018-10.52-.012-15.78.003-4.394-.003-8.788-.009-13.181-.014-10.366-.012-20.731-.001-31.096.011-10.69-.003-21.38-.03-32.07-.022-9.183-.028-18.366-.022-27.55.003-5.482 0-10.965-.017-16.447-.015-5.155-.011-10.31.008-15.464.003-1.89 0-3.78-.01-5.67a648.54 648.54 0 0 1 .016-7.75l-.03-2.258c.087-6.143 1.996-10.3 6.152-14.813 4.659-3.352 8.272-3.923 13.938-3.728l2.391.021c2.497.028 4.991.09 7.488.154 1.702.026 3.404.048 5.107.069 4.153.05 8.302.148 12.455.244v-21Z"/><path fill="#FDFDFD" d="M326 516h92v94h-92v-94Z"/><path fill="#ECE3D7" d="M427 592h147c0 7.758-.7 15.019-1.688 22.688l-.45 3.896c-2.613 20.273-2.613 20.273-9.362 26.854L559 647l-2.226 1.444c-11.764 6.825-24.91 5.306-38.075 5.142-2.65-.011-5.299-.02-7.948-.026-6.23-.018-12.459-.067-18.688-.128-7.799-.074-15.598-.106-23.397-.139-13.89-.058-27.777-.178-41.666-.293v-61Z"/><path fill="#050505" d="m726.07 448.372 3.715-.022c3.396-.014 6.79-.006 10.186.011 3.665.013 7.33-.002 10.994-.014 7.177-.018 14.352-.01 21.529.008 5.832.014 11.664.018 17.496.015l2.516-.002 5.058-.003c14.911-.008 29.822.008 44.733.038 14.469.029 28.937.036 43.406.02a21731.358 21731.358 0 0 1 54.812.006c5.825.005 11.65.002 17.475-.005 7.1-.007 14.198 0 21.297.024 3.622.013 7.244.02 10.866.008 3.926-.012 7.85.007 11.777.03l3.472-.026c5.988.063 10.018.248 14.598 4.54 3.676 4.34 3.424 8.605 3.381 14.027l.014 2.76c.012 3.052.003 6.104-.007 9.156a4569.884 4569.884 0 0 1 .015 24.396c-.008 6.218 0 12.436.004 18.654.006 11.113-.003 22.225-.019 33.338-.013 10.072-.01 20.143.003 30.215.016 11.7.022 23.399.013 35.098-.004 6.192-.005 12.384.005 18.576.009 5.822.003 11.643-.015 17.465-.004 2.138-.003 4.275.004 6.412.008 2.917-.002 5.833-.017 8.75l.02 2.565c-.049 4.932-.668 8.317-3.401 12.588-4.358 3.728-7.437 4.495-13.107 4.454l-2.072.002c-2.24-.003-4.48-.034-6.72-.065-1.56-.008-3.121-.014-4.682-.018-4.094-.015-8.187-.054-12.28-.098-4.183-.041-8.366-.06-12.55-.08A4857.52 4857.52 0 0 1 944 691v-6l2.561-.018c7.961-.058 15.921-.13 23.882-.218 4.093-.044 8.185-.084 12.278-.11 3.949-.026 7.897-.067 11.846-.117 1.507-.017 3.015-.028 4.522-.035 2.11-.01 4.219-.037 6.328-.07l3.64-.033c3.3-.447 3.951-.85 5.943-3.399.295-2.992.404-5.776.381-8.769l.014-2.748c.012-3.052.003-6.103-.007-9.155.004-2.183.01-4.365.016-6.548.014-5.938.008-11.876-.001-17.814-.008-6.204 0-12.409.004-18.613.006-11.09-.003-22.178-.019-33.267-.013-10.059-.01-20.117.003-30.176.016-11.675.022-23.35.013-35.024-.004-6.183-.005-12.365.005-18.547.009-5.811.003-11.622-.015-17.433-.004-2.137-.003-4.274.004-6.411.008-2.91-.002-5.818-.017-8.726l.02-2.585c.058-4.189.058-4.189-1.613-7.9-2.374-1.705-3.859-1.659-6.772-1.659l-3.136-.022-3.458.023-3.664-.012a1769.24 1769.24 0 0 0-10.087.008c-3.624.01-7.247 0-10.871-.005-7.102-.01-14.203-.003-21.304.009-8.265.013-16.53.012-24.794.01-14.743-.003-29.485.008-44.228.028-14.316.019-28.632.026-42.948.02a41770.901 41770.901 0 0 0-51.712.01l-2.476.001c-5.765.004-11.53.004-17.295.002-7.022-.002-14.045.003-21.067.017-3.585.008-7.17.012-10.756.007-3.88-.005-7.761.006-11.642.018l-3.458-.011-3.136.018-2.717.002c-2.548.107-2.548.107-5.267 2.252-.3 2.964-.404 5.72-.381 8.686l-.014 2.759c-.012 3.068-.003 6.136.007 9.205-.004 2.193-.01 4.385-.016 6.577a4604.6 4604.6 0 0 0 .001 17.907c.008 6.235 0 12.47-.004 18.706-.006 11.146.003 22.291.019 33.437.013 10.11.01 20.22-.003 30.33-.016 11.733-.022 23.465-.013 35.198.004 6.213.005 12.427-.005 18.64-.009 5.842-.003 11.683.015 17.525.004 2.148.003 4.296-.004 6.445a1107.4 1107.4 0 0 0 .017 8.772l-.02 2.598c-.074 4.233-.074 4.233 1.69 7.931 2.992 2.246 6.673 1.704 10.272 1.683l2.68.02c2.976.019 5.952.016 8.928.013l6.385.031c5.79.028 11.578.037 17.367.043 6.046.01 12.092.036 18.137.06 11.454.044 22.907.072 34.36.095 13.038.027 26.075.071 39.113.117 26.823.093 53.646.164 80.469.222v6c-28.32.093-56.64.164-84.96.207-13.15.02-26.299.049-39.448.095-11.46.04-22.919.065-34.378.074-6.07.006-12.138.018-18.207.047-5.711.027-11.422.035-17.133.03-2.097 0-4.194.009-6.29.024a797.4 797.4 0 0 1-8.586.004l-2.518.035c-5.262-.054-8.408-.879-12.48-4.516-3.398-4.92-3.427-9.354-3.381-15.116l-.014-2.752c-.012-3.038-.003-6.075.007-9.113a4529.675 4529.675 0 0 1-.015-24.291c.008-6.19 0-12.38-.004-18.57-.006-10.395.002-20.79.016-31.185.016-12.022.01-24.043-.006-36.066-.013-10.318-.015-20.637-.007-30.955.004-6.165.005-12.329-.005-18.493-.009-5.794-.003-11.588.015-17.382.004-2.128.003-4.256-.004-6.384-.008-2.902.002-5.803.017-8.704l-.02-2.561c.064-6.388 1.584-9.357 5.834-14.201 4.582-3.578 10.083-2.913 15.637-2.855Z"/><path fill="#FCFCFC" d="M326 617h92v68c-4.803 1.921-8.216 2.285-13.231 2.259l-2.47.01c-2.686.01-5.371.003-8.057-.003l-5.607.005c-3.912.003-7.824 0-11.736-.01-5.018-.012-10.037-.005-15.055.007-3.857.007-7.714.005-11.57 0-1.852-.002-3.702 0-5.553.005-2.583.005-5.166-.003-7.749-.014l-2.324.012c-3.76-.03-5.438-.13-8.648-2.271-.36-2.822-.36-2.822-.34-6.47l-.002-2.042c.003-2.187.025-4.372.049-6.558.004-1.349.008-2.697.01-4.045.015-5.003.057-10.007.096-15.01L326 617Z"/><path fill="#CDCACA" d="M411 705h339c5 12 5 12 5 15H404l7-15Z"/><path fill="#C9CCCD" d="M941 495c1.875 1.375 1.875 1.375 3 3v2c2.769.923 5.267 1.055 8.156 1.031L956 501l.076 1.757c.116 2.643.239 5.287.361 7.93l.12 2.764.127 2.686.11 2.46c.216 2.524.665 4.929 1.206 7.403l-3 1v3l6-1v4l-7-1v-5h-2l1 12-3-1 1-11h-3l1 9-3-1 1-8h-3l.254 2.344c.598 6.12.795 11.593-.254 17.656l3.188-.563c3.383-.388 5.576-.32 8.812.563v6l-12-2v7h10v2h-10l1 8h2v3h-3l.563 3.5c.827 7.16.008 14.344-.563 21.5l1.941-.07 2.621-.055 2.567-.07C954 596 954 596 961 598v27l-3-1h2v-4l-11 1v2h-3v-2h-2v3h13v1h-5l1 7h-9v8l7 1 1 4h-8v7h10v2h-10v9l3-1v4h-3l.563 3.938c.723 5.065.048 8.563-.563 14.062h68v1h-68v6c9.006-.038 18.012-.098 27.018-.184 4.182-.04 8.364-.072 12.547-.087 4.04-.015 8.079-.05 12.118-.097 1.538-.015 3.075-.023 4.613-.024 11.05.169 11.05.169 20.704-4.608-1.3 2.9-2.486 5.027-5 7-14.17 2.843-30.078 1.11-44.438 1.063-2.677-.006-5.355-.01-8.033-.014-6.51-.011-13.02-.028-19.529-.049l-.332 2.457-.48 3.356-.458 3.269c-.939 5.039-2.381 9.973-3.73 14.918h-58v-1h55l-4-20v-3H697v-2l14-1-4-3 1-2 2.438 1.968c4.07 2.692 7.796 2.595 12.56 2.551l2.713.023c2.994.02 5.988.012 8.982.004 2.149.009 4.297.02 6.446.031 5.83.028 11.66.031 17.49.03 6.094.004 12.188.03 18.282.052 11.538.041 23.076.061 34.615.074 13.136.016 26.273.055 39.41.095 27.02.082 54.042.137 81.064.172l-.008-3.006c-.067-24.11-.116-48.22-.147-72.33-.016-11.66-.037-23.32-.071-34.98-.03-10.159-.05-20.319-.056-30.478-.004-5.382-.013-10.764-.035-16.146a3095.75 3095.75 0 0 1-.022-15.185c-.001-1.861-.007-3.723-.019-5.584a835.316 835.316 0 0 1-.003-7.603l-.026-2.25c.025-2.92.049-4.942 1.722-7.395 2.623-1.643 4.653-1.42 7.665-1.043Z"/><path fill="#CBC3B7" d="M364 448h1v21l6.254-.035c2.055-.008 4.111-.014 6.167-.02 1.4-.005 2.802-.012 4.203-.02 9.841-.06 19.563.289 29.376 1.075v1l-3.073.011c-9.563.037-19.127.095-28.69.173-4.917.04-9.833.072-14.75.087-4.747.015-9.493.05-14.239.097-1.809.015-3.618.023-5.428.024-2.537.002-5.074.03-7.612.062l-2.258-.015c-5.116.102-8.064 1.25-11.95 4.561-3.228 4.2-3.427 7.954-3.381 13.071l-.014 2.448c-.012 2.705-.003 5.409.007 8.113-.004 1.94-.01 3.88-.016 5.82a3590.75 3590.75 0 0 0 .001 15.806c.008 5.514 0 11.029-.004 16.543-.006 9.262.002 18.524.016 27.786.016 10.705.01 21.41-.006 32.114-.013 9.192-.015 18.384-.007 27.575.004 5.49.005 10.979-.005 16.468-.009 5.163-.003 10.325.015 15.488.004 1.894.003 3.787-.004 5.68-.008 2.588.002 5.175.017 7.763l-.02 2.262c.057 5.14 1.047 8.586 3.401 13.063 5.198 3.999 10.22 4.151 16.58 4.161l2.297.015c2.504.015 5.009.022 7.514.027l5.239.017c3.661.01 7.323.017 10.985.02 4.678.006 9.356.03 14.034.058 3.609.019 7.217.024 10.825.026 1.724.003 3.448.01 5.172.024 2.42.017 4.838.015 7.257.008l2.133.028c5.035-.041 9.539-.974 13.964-3.384 4.18-5.06 6.24-9.994 6.278-16.537l.034-3.335.007-3.63.03-3.844c.028-3.47.043-6.941.056-10.412.015-3.63.042-7.26.068-10.89.047-6.87.083-13.741.116-20.612.039-7.823.088-15.647.138-23.47.104-16.09.193-32.18.273-48.27h1v107c21.857-.007 21.857-.007 43.715-.071 7.82-.033 15.641-.058 23.462-.05 6.195.008 12.39-.006 18.585-.045 3.275-.02 6.55-.027 9.825-.014 17.883.437 17.883.437 34.334-5.633L559 646l2 1-1 1c3.119 1.56 6.43 1.138 9.854 1.13l2.466.005c2.719.004 5.438.001 8.157-.002l5.757.003c4.057.001 8.114-.001 12.172-.006 5.07-.005 10.142-.002 15.213.004 21.85.021 43.676-.12 65.514-.872l2.365-.075c2.073-.065 4.146-.137 6.22-.21 5.448-.077 10.863.506 16.282 1.023l-.006-2.977a72634.71 72634.71 0 0 1-.098-71.63c-.01-11.546-.024-23.092-.047-34.638-.02-10.06-.033-20.121-.037-30.182-.003-5.33-.009-10.66-.023-15.99-.014-5.01-.018-10.022-.015-15.034 0-1.844-.005-3.688-.012-5.532-.01-2.508-.008-5.017-.003-7.525l-.017-2.235c.03-5.029.03-5.029 2.258-7.257l-.003 3.5a195555.915 195555.915 0 0 0-.052 92.356v2.035c-.005 10.876-.013 21.753-.022 32.63-.01 11.158-.015 22.317-.017 33.476a19792.3 19792.3 0 0 1-.012 18.805c-.007 5.898-.009 11.795-.007 17.692 0 2.167-.002 4.334-.006 6.5-.005 2.955-.004 5.909-.001 8.863l-.01 2.609c.01 3.98.138 7.65 1.13 11.534-2-1-2-1-3-4a111.147 111.147 0 0 1-.098-5.543l.01-3.252.025-3.393.014-3.427c.012-2.795.028-5.59.049-8.385-11.336.388-22.664.832-33.984 1.547l-2.298.143c-3.76.236-7.52.48-11.278.737-1.4.09-2.799.18-4.198.268-1.228.083-2.457.166-3.723.25-3.626.057-6.942-.383-10.519-.945-1.64-.084-3.28-.13-4.922-.133l-2.805-.006-3.023.014-3.224.006c-11.152.057-22.296.392-33.441.763l-4.245.137-2.089.068c-6.223.184-12.438.151-18.663.07-3.612.003-3.612.003-7.237.645-3.234.42-5.225.161-8.351-.564-1.71-.004-3.42.05-5.125.156l-2.89.16-2.985.184c-1.958.12-3.916.235-5.875.344l-2.617.162C528 662 528 662 525.642 661.508c-2.55-.49-4.832-.635-7.424-.637l-2.818-.01-3.04.006-3.212-.004c-3.466-.002-6.932.005-10.398.012l-3.565.003c-22.072.02-44.124.43-66.185 1.122l-.155 3.099-.232 4.077-.098 2.036c-.414 6.956-2.178 12.126-6.765 17.35L420 690l2 2c-1.964 1.964-4.983 1.12-7.597 1.124l-2.88-.01h-3.015c-3.306 0-6.612-.009-9.918-.016l-6.856-.005a15101.6 15101.6 0 0 1-18.086-.024c-6.146-.01-12.293-.015-18.439-.02-12.07-.01-24.14-.028-36.209-.049v-2l6-1-2.313-1.563c-4.272-3.875-5.527-7.777-6.067-13.371-.018-1.46-.02-2.918-.008-4.378l-.016-2.453a1021.65 1021.65 0 0 1 0-8.094l-.02-5.822c-.019-5.26-.018-10.52-.012-15.78.003-4.394-.003-8.788-.009-13.181-.014-10.366-.012-20.731-.001-31.096.011-10.69-.003-21.38-.03-32.07-.022-9.183-.028-18.366-.022-27.55.003-5.482 0-10.965-.017-16.447-.015-5.155-.011-10.31.008-15.464.003-1.89 0-3.78-.01-5.67a648.54 648.54 0 0 1 .016-7.75l-.03-2.258c.087-6.143 1.996-10.3 6.152-14.813 4.659-3.352 8.272-3.923 13.938-3.728l2.391.021c2.497.028 4.991.09 7.488.154 1.702.026 3.404.048 5.107.069 4.153.05 8.302.148 12.455.244v-21Z"/><path fill="#16A748" d="m337.813 472.875 3.519.055L344 473l3 7 25 1v19l5-1v5h-4l-1 12h-46v94h92v1h-46v6h-46v68c-4.117-5.147-4.58-7.067-4.508-13.16l-.019-2.478c-.016-2.737-.003-5.473.01-8.21a2756.619 2756.619 0 0 1-.02-21.88c.01-5.577 0-11.153-.006-16.73-.007-9.364.002-18.729.022-28.094.021-10.83.014-21.659-.008-32.489-.018-9.295-.02-18.59-.01-27.885.006-5.553.007-11.106-.006-16.659-.012-5.22-.004-10.44.02-15.66.005-1.917.003-3.834-.006-5.751-.01-2.615.003-5.229.023-7.844l-.027-2.303c.073-4.9 1.033-7.424 4.535-10.857 3.925-2.203 7.367-2.215 11.813-2.125Z"/><path fill="#0E110F" d="m337.48 470.482 2.516-.02c2.73-.018 5.46-.007 8.192.007l5.715-.012c3.988-.006 7.975.003 11.963.022 5.105.022 10.209.01 15.313-.015 3.933-.014 7.865-.01 11.798 0 1.882.003 3.763 0 5.645-.01 2.633-.01 5.265.006 7.898.028l2.342-.024c5.22.081 8.264 1.028 12.138 4.542 3.513 5.316 4.585 10.028 4.508 16.311l.019 2.417a740.54 740.54 0 0 1-.01 7.954 2596.87 2596.87 0 0 1 .02 21.242c-.01 5.419 0 10.837.006 16.256.007 9.1-.002 18.198-.022 27.297-.021 10.511-.014 21.022.008 31.533.018 9.034.02 18.067.01 27.101-.006 5.392-.007 10.783.006 16.174.012 5.07.004 10.139-.02 15.208-.005 1.858-.003 3.715.006 5.573a627.61 627.61 0 0 1-.023 7.623l.027 2.212c-.081 5.37-1.507 9.634-4.535 14.099-5.776 4.693-10.37 5.15-17.595 5.161l-2.303.015c-2.509.015-5.018.022-7.528.027l-5.246.017c-3.666.01-7.332.017-10.998.02-4.687.006-9.374.03-14.061.058-3.613.019-7.226.024-10.838.026-1.728.003-3.455.01-5.183.024-2.422.017-4.843.015-7.265.008l-2.143.028c-6.38-.053-10.83-1.68-15.715-5.822-3.701-4.462-3.274-8.91-3.272-14.52l-.011-2.447c-.011-2.71-.015-5.42-.019-8.13l-.02-5.824c-.02-6.378-.031-12.756-.041-19.133l-.013-6.586c-.019-10.31-.033-20.62-.041-30.93-.01-11.907-.036-23.813-.077-35.719-.03-9.2-.045-18.402-.048-27.603-.002-5.496-.011-10.993-.036-16.49-.024-5.169-.028-10.338-.018-15.507 0-1.897-.006-3.794-.02-5.691-.017-2.59-.01-5.18.003-7.77l-.033-2.274c.063-5.12 1.312-7.988 4.521-11.938 4.637-3.994 8.551-4.58 14.48-4.518Zm-14.105 7.125c-1.955 3.402-1.79 6.616-1.756 10.433l-.014 2.475c-.012 2.74-.003 5.48.007 8.22-.004 1.962-.01 3.925-.016 5.888-.014 5.335-.008 10.669.001 16.004.008 5.579 0 11.158-.004 16.737-.006 9.37.002 18.741.016 28.112.016 10.837.01 21.674-.006 32.511-.013 9.3-.015 18.6-.007 27.899.004 5.556.005 11.112-.005 16.668-.009 5.225-.003 10.449.015 15.673.004 1.919.003 3.837-.004 5.756-.008 2.617.002 5.233.017 7.85l-.02 2.306c.05 4.464.676 7.294 3.401 10.861 3.553 2.734 7.778 2.289 12.07 2.275l2.455.015c2.677.014 5.353.013 8.03.01l5.59.014c3.905.007 7.81.007 11.716.002 4.999-.006 9.998.01 14.997.034 3.848.015 7.697.016 11.545.013 1.843 0 3.686.005 5.528.015 2.58.013 5.16.006 7.74-.006l2.296.023c4.746-.046 8.025-.834 12.033-3.395 2.49-3.734 2.288-6.628 2.274-10.951l.016-2.482c.015-2.755.016-5.509.016-8.264.008-1.97.016-3.941.026-5.912.022-5.362.03-10.724.035-16.085.004-3.349.01-6.697.017-10.046.025-11.677.038-23.355.042-35.033.003-10.891.033-21.782.075-32.673.035-9.345.05-18.69.05-28.036.002-5.584.01-11.167.039-16.75.026-5.253.028-10.505.012-15.758-.002-1.927.005-3.855.02-5.783.021-2.632.01-5.263-.007-7.895l.04-2.31c-.091-5.774-1.689-8.127-5.655-12.022-3.353-1.545-7.105-1.099-10.75-1.063l-3.547.028L399 473l-3 7h-49l-3-7c-11.238-.77-11.238-.77-20.625 4.607Z"/><path fill="#100F0F" d="m568.563 389.375 3.566.273C575 390 575 390 576 391c.04 1.666.043 3.334 0 5h9v2h2v-2c3.358-.659 6.573-1.131 10-1 3.208 2.406 4.789 4.683 7 8 .221 4.067-.178 7.802-2.5 11.188-5.18 1.683-10.323-.68-15.125-2.75-3.512-1.496-6.593-2.052-10.375-2.438l.563 3.813c.444 3.014.435 4.192-.563 7.187l1.652-.656c5.707-2.107 10.274-2.633 16.348-2.344v2l2.875.438C600 420 600 420 602 421c-.648 1.912-.648 1.912-2 4-2.506.881-2.506.881-5.629 1.414l-3.385.617-3.548.594c-2.316.401-4.63.81-6.942 1.227l-3.12.525L575 430l-1 2h-3l-2 1c-.193 4.824.243 8.496 2 13-2.313 0-2.313 0-5-1-1.383-2.555-2.218-5.209-3-8l-2.484.219-3.266.281-3.234.281c-2.334.17-4.676.219-7.016.219a2074.387 2074.387 0 0 1-4.36-3.883c-2.808-1.912-5.376-1.473-8.64-1.117l-2.375.5c-3.867.737-7.7.577-11.625.5l1.965-.781L524 432c.374-2.327.708-4.661 1-7 3-2 3-2 5.188-1.625L532 424v2h3v-3l1.39 1.059 1.86 1.378 1.828 1.372c2.866 1.776 4.808 2.418 8.149 1.738l2.398-.797 2.625-.848L556 426c1.873-.568 3.748-1.13 5.625-1.688.838-.25 1.676-.502 2.54-.761L566 423l1-6c-2.488-1.244-3.692-.95-6.438-.625-4.7.532-9.401.959-14.117 1.344-2.422.208-2.422.208-4.593.914C540 419 540 419 537.25 417.375 535 415 535 415 534.687 412.25L535 410l-6-1c-1.133-3.399-.857-4.27.25-7.563l.766-2.378C531 397 531 397 534 395l1-3h2l1 3 7 1v-3h2v3l10-1v-2h2v3l1.813-.938C563 394 563 394 566 393v3h7l1-5h-4l-1 4h-2v-4l-3 1c-2.188-.938-2.188-.938-4-2 2.926-1.463 5.326-.888 8.563-.625Z"/><path fill="#424443" d="M696.09 631.867C698 632 698 632 700 633v6h2c2.107 3.424 2.087 6.04 2 10l-1.651-.016c-10.161-.083-20.303-.069-30.456.368-20.117.853-40.237.836-60.368.833-5.193 0-10.385.014-15.578.031-4.031.011-8.063.013-12.095.013-1.918 0-3.836.005-5.754.013-2.652.01-5.304.007-7.956 0-1.178.01-1.178.01-2.38.018-3.795-.022-5.524-.101-8.762-2.26l1.207-1.25 1.606-1.75 1.582-1.688c2.25-3.24 3.313-6.587 4.605-10.312 13.2-.147 26.392.068 39.589.373 1.851.043 3.703.084 5.554.124 2.648.058 5.295.121 7.943.187l2.407.05c4.578.121 8.968.613 13.507 1.266 2.336-.314 4.67-.65 7-1a249.97 249.97 0 0 1 8.645.063c2.376.103 2.376.103 4.355-1.063 2.516.175 4.992.515 7.492.844 2.47.154 4.14-.25 6.508-.844l3 1c2.335-.32 4.668-.656 7-1 1.458-.023 2.917-.024 4.375 0H689c1.899-1.899 4.572-1.124 7.09-1.133Z"/><path fill="#757576" d="M934 496h2c1.83 5.472 2.292 10.255 2.278 16.004l.018 2.679c.017 2.95.02 5.898.023 8.848l.03 6.358c.028 5.745.043 11.49.056 17.236.015 6.007.042 12.014.068 18.02.047 11.373.083 22.745.116 34.116.039 12.948.088 25.896.138 38.844.104 26.632.191 53.263.273 79.895h-58v-1h55l-4-20v-3H697v-2l14-1-4-3 1-2 2.438 1.968c4.07 2.692 7.796 2.595 12.56 2.551l2.713.023c2.994.02 5.988.012 8.982.004 2.149.009 4.297.02 6.446.031 5.83.028 11.66.031 17.49.03 6.094.004 12.188.03 18.282.052 11.538.041 23.076.061 34.615.074 13.136.016 26.273.055 39.41.095 27.02.082 54.042.137 81.064.172l-.006-3.009c-.044-24.126-.077-48.253-.098-72.38-.01-11.667-.024-23.334-.047-35.002-.02-10.166-.033-20.331-.037-30.497-.003-5.386-.009-10.772-.023-16.158a4650.73 4650.73 0 0 1-.015-15.192c0-1.864-.005-3.727-.012-5.59-.01-2.535-.008-5.07-.003-7.604l-.017-2.258c.03-5.082.03-5.082 2.258-7.31Z"/><path fill="#CECBCB" d="M702 705h48c5 12 5 12 5 15H637v-2a888.223 888.223 0 0 0-5.375-.063l-3.023-.035c-2.586-.082-2.586-.082-4.602 1.098-2.89-.09-5.744-.234-8.625-.438l-2.43-.158c-1.982-.13-3.963-.266-5.945-.404v-1h11v-3h18l-1-2c-2.025-.652-2.025-.652-4-1v2h-18l2-2-14-1 1-3c4.94-1.297 9.828-1.126 14.895-1.098l2.87.005c3.016.005 6.032.018 9.048.03 2.048.006 4.097.01 6.146.014 5.014.011 10.027.028 15.041.049-3.088 1.765-4.233 2-8 2v3h5v-2l13-1-5-1v-1h19v1l-8 1v3l6-1v-1c2.75-.027 5.5-.047 8.25-.063l2.355-.025 2.286-.01 2.094-.016c2.115.12 3.981.538 6.015 1.114v-2l-14-1v-1c3.083-.03 6.167-.047 9.25-.063l2.645-.025 2.558-.01 2.349-.016c2.19.114 4.094.508 6.198 1.114v-2Z"/><path fill="#111" d="M1022 458h1a67006.754 67006.754 0 0 1 .165 94.946l.002 2.016c.013 10.773.037 21.545.064 32.318.029 11.053.045 22.107.051 33.161.004 6.209.013 12.417.035 18.626.02 5.842.027 11.684.022 17.527.001 2.145.007 4.29.019 6.436.015 2.928.011 5.855.003 8.783l.026 2.576c-.037 4.944-.643 8.33-3.387 12.611-4.358 3.728-7.437 4.495-13.107 4.454l-2.072.002c-2.24-.003-4.48-.034-6.72-.065-1.56-.008-3.121-.014-4.682-.018-4.094-.015-8.187-.054-12.28-.098-4.183-.041-8.366-.06-12.55-.08A4857.52 4857.52 0 0 1 944 691v-6l2.561-.018c7.961-.058 15.921-.13 23.882-.218 4.093-.044 8.185-.084 12.278-.11 3.949-.026 7.897-.067 11.846-.117 1.507-.017 3.015-.028 4.522-.035 2.11-.01 4.219-.037 6.328-.07l3.64-.033c3.3-.447 3.95-.852 5.943-3.399.3-2.973.416-5.738.399-8.713l.02-2.73c.019-3.031.016-6.062.013-9.093l.031-6.504c.028-5.896.037-11.792.043-17.689.01-6.158.036-12.316.06-18.473.044-11.666.072-23.332.095-34.998.027-13.28.071-26.559.117-39.838.093-27.32.164-54.641.222-81.962h1v110l4-1 1-112Z"/><path fill="#C4C1C1" d="M411 705h148v2h-10l5 1v2l-5 1v-2c-2.896.141-5.792.288-8.688.438l-2.474.119c-4.035.212-7.895.487-11.838 1.443v-3l4-1c-2.938-.027-5.875-.047-8.813-.063l-2.525-.025-2.432-.01-2.237-.016c-2.204.039-2.204.039-4.993 1.114l-1 2h5v1h-18v2h-4v-2c2.882-.96 4.699-1.106 7.688-1.063l2.449.028L503 710l-1-1c-2.024.09-4.045.246-6.063.438l-3.347.308L490 710v1h-18v3h4v4l4 2h-76l7-15Z"/><path fill="#838584" d="M705 456c1.31 3.928 1.13 7.661 1.114 11.755v2.744c0 3.047-.009 6.094-.016 9.141l-.005 6.539c-.003 4.7-.01 9.4-.018 14.099-.013 7.428-.02 14.856-.024 22.285a83775.38 83775.38 0 0 1-.054 49.325c-.02 16.346-.04 32.692-.05 49.038-.005 7.387-.015 14.775-.029 22.162-.007 4.593-.01 9.187-.013 13.78-.002 2.133-.005 4.266-.01 6.399-.008 2.908-.009 5.816-.009 8.724l-.01 2.567c.007 3.95.143 7.585 1.124 11.442-2-1-2-1-3-4v-27l-142 1v1l-135-1v-1l2.788-.031c8.862-.1 17.725-.203 26.587-.308 4.551-.054 9.103-.108 13.654-.158 9.705-.109 19.408-.238 29.112-.397a985.56 985.56 0 0 1 15.673-.115c3.34-.004 6.68-.036 10.02-.072 1.548-.01 3.096-.01 4.644.004 10.25.089 17.579-1.63 26.636-6.521L559 646l2 1-1 1c3.119 1.56 6.43 1.138 9.854 1.13l2.466.005c2.719.004 5.438.001 8.157-.002l5.757.003c4.057.001 8.114-.001 12.172-.006 5.07-.005 10.142-.002 15.213.004 21.85.021 43.676-.12 65.514-.872l2.365-.075c2.073-.065 4.146-.137 6.22-.21 5.448-.077 10.863.506 16.282 1.023l-.003-2.977c-.022-23.877-.038-47.753-.049-71.63-.005-11.546-.012-23.092-.023-34.638-.01-10.06-.017-20.121-.02-30.182 0-5.33-.003-10.66-.01-15.99-.007-5.01-.01-10.022-.008-15.034 0-1.844-.002-3.688-.006-5.532-.005-2.508-.004-5.017-.001-7.525l-.01-2.235c.016-5.029.016-5.029 1.13-7.257Z"/><path fill="#2DAC57" d="M322 505c2.333-.042 4.667-.04 7 0 1 1 1 1 1.063 4.563L330 513l-4 2v95h92v1h-46v6h-46v68c-4.231-5.29-4.5-5.947-4.481-12.245l-.01-2.178c-.007-2.404.015-4.806.037-7.21a2259.603 2259.603 0 0 1 .049-19.212c.024-4.89.027-9.782.032-14.674.012-9.26.045-18.522.085-27.783.045-10.544.067-21.088.087-31.632.042-21.689.112-43.377.201-65.066Z"/><path fill="#5F6064" d="M364 448h1v21l6.254-.035c2.055-.008 4.111-.014 6.167-.02 1.4-.005 2.802-.012 4.203-.02 9.841-.06 19.563.289 29.376 1.075v1l-3.073.011c-9.563.037-19.127.095-28.69.173-4.917.04-9.833.072-14.75.087-4.747.015-9.493.05-14.239.097-1.809.015-3.618.023-5.428.024-2.537.002-5.074.03-7.612.062l-2.258-.015c-5.116.102-8.064 1.25-11.95 4.561-3.228 4.2-3.427 7.954-3.381 13.071l-.014 2.448c-.012 2.705-.003 5.409.007 8.113-.004 1.94-.01 3.88-.016 5.82a3590.75 3590.75 0 0 0 .001 15.806c.008 5.514 0 11.029-.004 16.543-.006 9.262.002 18.524.016 27.786.016 10.705.01 21.41-.006 32.114-.013 9.192-.015 18.384-.007 27.575.004 5.49.005 10.979-.005 16.468-.009 5.163-.003 10.325.015 15.488.004 1.894.003 3.787-.004 5.68-.008 2.588.002 5.175.017 7.763l-.02 2.262c.057 5.14 1.047 8.586 3.401 13.063 5.198 3.999 10.22 4.151 16.58 4.161l2.297.015c2.504.015 5.009.022 7.514.027l5.239.017c3.661.01 7.323.017 10.985.02 4.678.006 9.356.03 14.034.058 3.609.019 7.217.024 10.825.026 1.724.003 3.448.01 5.172.024 2.42.017 4.838.015 7.257.008l2.133.028c5.014-.041 9.574-.932 13.964-3.384 1.743-1.918 2.767-3.688 4-6l2 1c-.542 3.796-2.201 5.472-5 8l2 2c-1.964 1.964-4.983 1.12-7.597 1.124l-2.88-.01h-3.015c-3.306 0-6.612-.009-9.918-.016l-6.856-.005a15101.6 15101.6 0 0 1-18.086-.024c-6.146-.01-12.293-.015-18.439-.02-12.07-.01-24.14-.028-36.209-.049v-2l6-1-2.313-1.563c-4.272-3.875-5.527-7.777-6.067-13.371-.018-1.46-.02-2.918-.008-4.378l-.016-2.453a1021.65 1021.65 0 0 1 0-8.094l-.02-5.822c-.019-5.26-.018-10.52-.012-15.78.003-4.394-.003-8.788-.009-13.181-.014-10.366-.012-20.731-.001-31.096.011-10.69-.003-21.38-.03-32.07-.022-9.183-.028-18.366-.022-27.55.003-5.482 0-10.965-.017-16.447-.015-5.155-.011-10.31.008-15.464.003-1.89 0-3.78-.01-5.67a648.54 648.54 0 0 1 .016-7.75l-.03-2.258c.087-6.143 1.996-10.3 6.152-14.813 4.659-3.352 8.272-3.923 13.938-3.728l2.391.021c2.497.028 4.991.09 7.488.154 1.702.026 3.404.048 5.107.069 4.153.05 8.302.148 12.455.244v-21Z"/><path fill="#77726A" d="m933 684 4 1 1 32c-2.205-2.205-2.429-3.068-3.07-6.027l-.528-2.4-.527-2.51-.55-2.499c-.709-3.277-1.325-6.199-1.325-9.564H697v-2l14-1-4-3 1-2 2.438 1.968c4.07 2.692 7.796 2.595 12.56 2.551l2.713.023c2.994.02 5.988.012 8.982.004 2.149.009 4.297.02 6.446.031 5.83.028 11.66.031 17.49.03 6.094.004 12.188.03 18.282.052 11.538.041 23.076.061 34.615.074 13.136.016 26.273.055 39.41.095 27.02.082 54.042.137 81.064.172-.03-1.454-.03-1.454-.063-2.938C932 685 932 685 933 684Z"/><path fill="#1E2219" d="M658 309c6.75 2.875 6.75 2.875 9 4v6h-2v2l4 1-1-5 3-1c1.225-3.008 1.225-3.008 2-6l3 1c2.324.185 2.324.185 5-2l2 3-4 3 1 2 2 4 4-2v3l-4 2-3-2v3c2.118 1.118 2.118 1.118 5 2l-1 3-3-1 1.063 2.875C682 335 682 335 681 337l3 1-1 2-5-1v4h4v2h-12v-2h3l-5-3-1 4h-9l-1-3 1-2h-3c0-2 0-2 2-4a200.785 200.785 0 0 0 3-6h3l1-4-5-1-1 3-1-2c-2.025-.652-2.025-.652-4-1v-3h-2l1-4h3l-1-4h3l1-4Zm23 8 2 1Z"/><path fill="#000100" d="M333 471h82l-1 2c-2.55.312-5.004.513-7.563.625l-2.154.117c-1.76.095-3.522.177-5.283.258l-.938 2.938C397 480 397 480 396 481a73.018 73.018 0 0 1-4.612.114h-2.972l-3.232-.016-3.292-.005c-3.485-.005-6.97-.018-10.454-.03-2.357-.006-4.713-.01-7.069-.014-5.79-.011-11.58-.028-17.369-.049l-3-7-12-1 1-2Z"/><path fill="#D1CECE" d="m616.895 705.902 2.87.005c3.016.005 6.032.018 9.048.03 2.048.006 4.097.01 6.146.014 5.014.011 10.027.028 15.041.049-3.088 1.765-4.233 2-8 2v3h5v-2l13-1-5-1v-1h19v1l-8 1v3l6-1v-1h17v1l-12 1v2h-17l-1-2h-5v2l-17 1 1 2 4-1v-1h18v2h-11l-1 3-11 1v-2a888.223 888.223 0 0 0-5.375-.063l-3.023-.035c-2.586-.082-2.586-.082-4.602 1.098-2.89-.09-5.744-.234-8.625-.438l-2.43-.158c-1.982-.13-3.963-.266-5.945-.404v-1h11v-3h18l-1-2c-2.025-.652-2.025-.652-4-1v2h-18l2-2-14-1 1-3c4.94-1.297 9.828-1.126 14.895-1.098Z"/><path fill="#344342" d="M773 595c2.312-.027 4.625-.046 6.938-.063l3.902-.035C787 595 787 595 788 596c.141 2.67.042 5.324 0 8l-15-1v3h13v18h-13v4h14v-22c2 2 2 2 2.23 4.398-.298 20.67-.298 20.67-2.23 22.602-2.353.073-4.708.084-7.063.063l-3.91-.028L773 633c-1.562-4.163-2.256-7.622-2.266-12.063l-.007-3.414.023-3.523-.023-3.523.007-3.414.007-3.09c.283-3.243 1.119-5.934 2.259-8.973Z"/><path fill="#392F2E" d="M943 597h17c1 1 1 1 1.114 3.592l-.016 3.412-.01 3.682-.025 3.876-.014 3.89c-.012 3.182-.028 6.365-.049 9.548l-3-1h2v-4l-11 1v2h-3v-2h-2v3h13v1h-5l1 6h-10v-34Z"/><path fill="#E3BB49" d="M852 595h24v4h-5l.84 1.504c2.447 4.59 3.728 8.312 4.16 13.496h-5l.125 2.375C871 619 871 619 869 621c0 2.008.004 4.016.063 6.023-.076 2.4-.737 3.987-2.063 5.977l-3-1h2v-2h-4l1 3h-2c-1.746-2.728-1.998-4.122-1.938-7.438.247-3.566.247-3.566-1.687-6.125C856 617 856 617 856.5 614.313c5.89-13.007 5.89-13.007 8.5-14.312-1.747-.794-1.747-.794-4-1-2.73 1.354-2.73 1.354-5 3l1-3h-5v-4Z"/><path fill="#AAA6A2" d="M426 546h1v107h117v1l-37 1 32 1v1H427v23l-2 3c-1.125-4.75-1.125-4.75 0-7 .105-1.723.147-3.45.158-5.176l.03-3.323.017-3.662.03-3.843c.027-3.483.048-6.966.068-10.45.022-3.638.05-7.276.076-10.914.05-6.892.095-13.784.138-20.676.05-7.845.105-15.69.16-23.535.114-16.14.22-32.28.323-48.421Z"/><path fill="#1C1816" d="M704 482v26l-4 2-2 2h-4l-2.625.188L689 512l-2-3h2l-2-5h2l-2-7h-2l.781-5.957c.272-2.198.272-2.198.219-5.043 4.75-1 4.75-1 7-1l2-2c3.157-.83 5.697-1 9-1Z"/><path fill="#A3A19D" d="m564.024 654.64 3.739-.013 4.093.032h4.317c3.905-.002 7.81.016 11.714.037 4.081.019 8.163.02 12.244.024 7.728.01 15.455.034 23.183.064 8.798.033 17.596.05 26.394.065 18.097.031 36.195.084 54.292.151v3H554c4.269-3.202 5.002-3.374 10.024-3.36Z"/><path fill="#F9FAFA" d="m345.5 530.25 5.656.39 2.526.205c2.102.14 4.211.155 6.318.155h8v2l2-1c2.207-.07 4.417-.084 6.625-.063l3.602.028L383 532v2l-2.938.875c-3.169.767-3.169.767-4.062 3.125h6v3c-12.099 1.25-12.099 1.25-18.063.5-6.286-.743-12.475-.261-18.77.182-4.918.32-9.314.21-14.167-.682v-2l6-1-1-3-5-1c3.696-5.544 8.582-4.256 14.5-3.75Z"/><path fill="#9E9EA1" d="M935 495h5v213h-1c-1.043-10.672-1.158-21.262-1.174-31.974l-.02-5.641c-.014-4.025-.026-8.049-.036-12.073-.015-6.367-.04-12.734-.065-19.101-.07-18.097-.13-36.194-.182-54.29-.028-10.014-.064-20.029-.106-30.043-.027-6.326-.045-12.652-.056-18.978-.01-3.934-.027-7.87-.047-11.804-.007-1.82-.011-3.64-.012-5.461 0-2.49-.014-4.98-.03-7.471l.008-2.167c-.05-4.981-.94-9.238-2.28-13.997Z"/><path fill="#BED6D6" d="M778 501h4v4h-2v4h4l1-5 6-1v4h-4l-1 2 3 1v6l-1-2h-16v6h3v-2l5 1-1 4h5l-1-5 3 2 1-2h2v12h-3l1 3 4-1-1 5c-2.438-.75-2.438-.75-5-2-.813-2.125-.813-2.125-1-4l-2 1v6l-4 1 1-9h-4v5h-3v2h-3v-5h3v2h2v-4h-3v-20l3-1v-3l-5 1v-4l6 1v5h4l-1-8Z"/><path fill="#65595B" d="M943 501h13l.184 4.2.254 5.488.119 2.763.127 2.686.11 2.46c.216 2.524.665 4.929 1.206 7.403l-3 1v3l6-1v4l-7-1v-5h-2l1 12-3-1 1-11h-3l1 9-3-1 1-8h-3l1 11c-2-2-2-2-2.227-5.44 0-1.47.012-2.941.032-4.412l.008-2.345c.011-2.476.037-4.952.062-7.428.01-1.677.02-3.354.027-5.031.022-4.115.057-8.23.098-12.344Z"/><path fill="#BEC1CC" d="M396 469a566.91 566.91 0 0 1 9.625-.25l2.738-.102c5.762-.084 9.094.442 13.637 4.352 6.19 7.027 5.35 13.82 5.563 22.75l.064 2.513c.756 30.567.46 61.163.373 91.737h-1l-1 86h-1l-.004-2.992a37018 37018 0 0 0-.18-72.086c-.04-11.62-.072-23.24-.087-34.86-.013-10.129-.04-20.257-.084-30.386-.022-5.362-.038-10.725-.037-16.087 0-5.05-.017-10.1-.05-15.149a728.29 728.29 0 0 1-.004-5.553c.007-2.533-.011-5.065-.035-7.598l.023-2.205c-.089-5.37-1.548-9.602-4.542-14.084-5.128-3.975-10.45-4.2-16.75-4.563l-2.113-.13c-1.712-.106-3.425-.207-5.137-.307v-1Z"/><path fill="#C9C6C6" d="M417 706h18l-1 4h3l1-3c2.349-1.174 3.738-1.115 6.352-1.098l2.578.01 2.695.025 2.719.014c2.219.012 4.437.028 6.656.049v2h-2v2h3l1-3c2.824-.941 4.53-1.117 7.45-1.098l2.568.01 2.67.025 2.705.014c2.202.012 4.405.028 6.607.049v2h-3v2l-13 1v2c-17.772 1.082-35.23 1.152-53 0l1-3 1 2h6v-2l-2-1 1-1-4-2Z"/><path fill="#D0CDCD" d="M729 710h19c2 5 2 5 2 10h-49v-4h-5v-2h12v2h5v-2l16-1v-3Z"/><path fill="#ECE6DB" d="M694 592h10v51l-2-4h-2c-2.228-9.66-4.222-19.256-5.25-29.125l-.242-2.29c-.497-5.212-.57-10.35-.508-15.585Z"/><path fill="#626563" d="m559 646 2 1-1 1c3.119 1.56 6.43 1.138 9.854 1.13l2.466.005c2.719.004 5.438.001 8.157-.002l5.757.003c4.057.001 8.114-.001 12.172-.006 5.07-.005 10.142-.002 15.213.004 21.85.021 43.676-.12 65.514-.872 8.356-.272 16.544-.235 24.867.738v2c-20.247.77-40.451 1.14-60.715 1.098l-8.073-.005c-6.26-.003-12.52-.01-18.781-.021-7.152-.011-14.304-.017-21.455-.022-14.659-.01-29.317-.027-43.976-.05 1-3 1-3 4.438-4.75L559 646Z"/><path fill="#656565" d="m933 684 4 1 1 32c-2.19-2.19-2.423-3.026-3.07-5.957l-.528-2.373-.527-2.482-.55-2.448c-.899-4.123-1.325-7.443-1.325-11.74l-213 1v-2h213v-6l1-1Z"/><path fill="#4C4E4D" d="M567.875 640.563 570 641c1 3 1 3 1 6 7.062.026 14.124.043 21.185.055 2.399.005 4.797.012 7.196.02 3.463.013 6.926.018 10.389.023l3.208.015c5.96 0 11.789-.281 17.713-.943 3.188-.235 6.153.36 9.309.83 4.173-.011 8.333-.225 12.5-.438 15.121-.716 15.121-.716 19.5-.562l1 1c2.328.368 4.662.702 7 1v1c-22.796 1.106-45.581 1.188-68.4 1.185-5.2 0-10.4.014-15.6.031-4.037.011-8.073.013-12.11.013-1.92 0-3.84.005-5.761.013-2.657.01-5.314.007-7.971 0-.787.007-1.574.012-2.384.018-3.8-.022-5.533-.1-8.774-2.26 5.094-6.862 5.094-6.862 8.875-7.438Z"/><path fill="#535453" d="m630.27 630.121 2.663.147 2.88.17c8.663.462 17.28.653 25.956.525 5.806-.06 11.466.353 17.231 1.037l-1 3c-5.75.125-5.75.125-8-1l-3 1c-2.788-.17-5.536-.512-8.309-.844-2.6-.15-4.206.202-6.691.844-3.274.067-6.535-.002-9.809-.063-3.104-.044-3.104-.044-5.726.625-2.465.438-2.465.438-4.871-.017-5.182-.786-10.328-.762-15.563-.826l-3.496-.056a5711.45 5711.45 0 0 0-11.035-.163 7411.9 7411.9 0 0 1-14.531-.219l-3.362-.04c-4.966-.08-9.73-.196-14.607-1.241 3.303-2.202 4.251-2.243 8.082-2.211l3.135.01 3.38.04 3.471.017c3.665.017 7.33.049 10.995.082 3.668.027 7.336.052 11.005.07 2.285.013 4.57.03 6.854.054l3.125.02 2.759.025c3.114-.152 5.199-1.184 8.464-.986Z"/><path fill="#BDBABA" d="M574 705h128v2h-13l4 1v2l-3 1-1-1a184.94 184.94 0 0 0-7.563-.063l-2.154.014c-1.76.012-3.522.03-5.283.049v1h-8v-3l3-1c-3.417-.167-3.417-.167-7 0l-2 2c-3.04.195-3.04.195-6.625.125l-3.602-.055L647 709v2h-5v-3l4-1h-56l-1 2c-2.706.476-5.336.84-8.063 1.125l-2.298.262A793.67 793.67 0 0 1 573 711v-3l3-1-2-2Z"/><path fill="#C1B8AB" d="M326 691h-7v2h98v1c-18.898.023-37.796.041-56.694.052-8.775.005-17.55.012-26.325.023-7.65.01-15.3.017-22.95.02-4.049 0-8.098.003-12.147.01-3.815.008-7.63.01-11.445.008-1.396 0-2.792.002-4.189.006-6.839.018-13.488-.046-20.25-1.119l1-2c2.315-.4 2.315-.4 5.337-.6l3.307-.223c4.985-.263 9.967-.447 14.958-.564l3.162-.077c2.18-.052 4.36-.101 6.54-.149 3.348-.075 6.696-.166 10.044-.256 2.126-.049 4.252-.096 6.379-.143l3.036-.088 2.794-.051 2.461-.058C324 689 324 689 326 691Z"/><path fill="#E8B48B" d="M375 658c3.293 3.223 3.405 6.085 3.563 10.563.125 5.042.125 5.042 2.437 9.437-4.696 4.852-4.696 4.852-9.313 5.375-4.57-.465-5.825-1.906-8.687-5.375l2-3c.34-3.586.442-7.15.559-10.75.441-3.25.441-3.25 1.789-5.16 2.634-1.738 4.592-1.536 7.652-1.09Z"/><path fill="#BFBCBC" d="m602 708-1 2h19v1l-5 1 16 1v-2l5 1v2h-18v3c4.744.876 4.744.876 9.5.5 3.334-.667 6.178-.086 9.5.5v2c-7.76.025-15.52.043-23.279.055-2.64.005-5.28.012-7.92.02-3.794.013-7.586.018-11.38.023l-3.582.015h-3.336l-2.934.007c-2.345-.11-4.327-.453-6.569-1.12v-3h5v2h19v-2h11v-2h-18v3h-5v-3c3.56-1.187 6.438-1.097 10.188-1.063l3.855.028L607 713v-2h-11v-3c3-1 3-1 6 0Z"/><path fill="#4F453F" d="m855 506 1.438 2c3.67 2.865 7.049 2.532 11.562 2l2-1 1-3h2l1 4 3-1c1.125 5.625 1.125 5.625 0 9l-3-1-1 4h-2l-1-3c-2-1.209-2-1.209-4-2l-1 4v-3h-2v15h2v-10h1v11h-4v-17c-4.124 1.649-4.124 1.649-6 5h-2l-1-4-2 1c-.625-3.375-.625-3.375-1-7l2-2 1 1 2-4Z"/><path fill="#CDCECE" d="M932 671v14H716v-1h215v-9h-7l1-3c4.75-1 4.75-1 7-1Z"/><path fill="#F37570" d="M960 597v4h-3v18h-7l-1-8h-3v-2h4l-2-5c-2.77 2.77-2.398 4.765-2.625 8.625l-.227 3.602L945 619h-1v-18h4l-1-3c4.386-.702 8.558-1.108 13-1Z"/><path fill="#787470" d="M1020 686c0 3 0 3-1.63 5.14-2.964 2.326-4.53 2.447-8.28 2.606l-1.911.087c-12.192.46-24.419.27-36.616.23-2.678-.006-5.356-.01-8.034-.014-6.51-.011-13.02-.028-19.529-.049v-3l2.617-.011c8.151-.038 16.302-.095 24.453-.173 4.19-.04 8.38-.072 12.57-.087 4.046-.015 8.092-.05 12.138-.097 1.541-.015 3.083-.023 4.624-.024 2.164-.002 4.327-.03 6.491-.062l3.728-.027c4.17-.64 6.07-1.974 9.379-4.519Z"/><path fill="#53545B" d="M944 501h12l1 21h-3v-2h-2v-3h-2v5l-2-2v-4l-4 1 2-5-2-1v-7h2v-2l-2-1Z"/><path fill="#BCB9B9" d="m547 710-1 2c2.23.027 4.458.046 6.688.063l3.761.035c3.441.014 3.441.014 6.301-.692 3.38-.61 5.372.92 8.25 2.594l-1 3h-4v-3h-18v3h11l-1 3h-35l1-2 2.438.063c2.496.233 2.496.233 3.562-1.063 2.264-.032 4.511.068 6.773.16 2.517.003 2.517.003 5.227-2.16l-14-1v-1h9v-2c3.38-1.04 6.478-1.08 10-1Z"/><path fill="#898177" d="m532.125 653.875 2.464-.008c2.223-.005 4.446-.004 6.669 0l3.567.004c3.137.127 6.094.541 9.175 1.129v2l-127-1v-1c79.854-1.098 79.854-1.098 105.125-1.125Z"/><path fill="#E9E9E9" d="M852 595h24v4h-5l.84 1.504c2.447 4.59 3.728 8.312 4.16 13.496h-6c-.838-1.622-1.67-3.248-2.5-4.875l-1.406-2.742C865 604 865 604 865 602l-2-1 2-1c-1.747-.794-1.747-.794-4-1-2.73 1.354-2.73 1.354-5 3l1-3h-5v-4Z"/><path fill="#888A90" d="M364 448h1v21l6.254-.035c2.055-.008 4.111-.014 6.167-.02 1.4-.005 2.802-.012 4.203-.02 9.841-.06 19.563.289 29.376 1.075v1h-85c2-2 2-2 5.532-2.227 1.513 0 3.026.012 4.538.032l2.413.008c2.548.011 5.095.037 7.642.062 1.725.01 3.45.02 5.176.027 4.233.02 8.466.06 12.699.098v-21Z"/><path fill="#424C51" d="M778 501h4v4h-2v4h4l1-5 6-1v4h-4l-1 2 3 1v6l-1-2h-16v11h-1v-15l3-1v-3l-5 1v-4l6 1v5h4l-1-8Z"/><path fill="#777779" d="M934 496h2c1.192 8.343 1.093 16.593 1 25h-4v48h-1c-.046-9.223-.082-18.445-.104-27.668-.01-4.282-.024-8.564-.047-12.847-.022-4.13-.034-8.26-.039-12.39-.003-1.578-.01-3.157-.021-4.735-.015-2.205-.017-4.41-.016-6.615l-.014-3.81C932 498 932 498 934 496Z"/><path fill="#BEBBBB" d="M521.188 709.938 525 710l-3 2 2 1-1 4-5 1 1 2h-20v-2c5.75-.125 5.75-.125 8 1v-3h12v-2h-19l-1 3h-11v2h-5l1-3h12v-3h18v-2c2.75-.917 4.36-1.109 7.188-1.063Z"/><path fill="#353737" d="M375 658c3.293 3.223 3.405 6.085 3.563 10.563.125 5.042.125 5.042 2.437 9.437l-3 1c-2.31-2.446-2.99-3.594-3.074-7.016l.387-3.234.363-3.266L376 663l-7 1c-.725 2.82-1.09 4.643-.375 7.5.507 3.377-.69 4.792-2.625 7.5 2.892.826 4.887 1 8 1h4c-1.063 1.5-1.063 1.5-3 3-3.375.5-3.375.5-7 0-2.938-2.5-2.938-2.5-5-5l2-3c.34-3.586.442-7.15.559-10.75.441-3.25.441-3.25 1.789-5.16 2.634-1.738 4.592-1.536 7.652-1.09Z"/><path fill="#C6C3C3" d="M487 705h20v3l-17 2v1h-18v3h-19v2h-4v-3h18v-2c2.27-.336 4.541-.669 6.813-1l3.832-.563C481 709 481 709 484 709v-2h3v-2Z"/><path fill="#E3AC89" d="M372.563 556.188C375 557 375 557 377 559c1.127 6.432-.409 10.725-4 16h-2c-3.29-4.833-4.444-8.143-4.434-13.984.772-3.589 2.336-5.096 5.997-4.828Z"/><path fill="#919592" d="M780 390v2l7-1 1 3 1-2c4.215-1.445 6.937-.606 11 1v-3l9 2v4h-33l-1 2v-7c3-1 3-1 5-1Z"/><path fill="#BFC2C2" d="M769.813 567.438c9.7.935 19.453.646 29.187.562l-1 3c-4.041.198-8.083.381-12.125.563l-3.46.17-3.36.146-3.079.143c-3.095-.023-5.934-.478-8.976-1.022-2.616.121-2.616.121-5.125.5-3.343.458-5.63.336-8.875-.5l-2 1c-2.125-.438-2.125-.438-4-1v-3l3.176.035 4.136.028 2.092.025c4.726.023 8.724-1.206 13.409-.65Z"/><path fill="#1F1C1A" d="M576 409c6.795-.772 13.256 1.33 19 5 .852 2.676.852 2.676 1 5h-2v-2c-10.129 1.416-10.129 1.416-20 4l1-1.5c1.436-3.59 1.129-6.645 1-10.5Z"/><path fill="#D1C9BE" d="m603.39 657.751 2.273.022h2.395c2.618 0 5.237.016 7.856.032l5.44.008c4.777.008 9.554.028 14.332.05 4.873.02 9.746.03 14.619.04 9.565.02 19.13.055 28.695.097v1c-4.713.312-9.427.615-14.142.91-1.601.1-3.202.204-4.804.31-2.31.154-4.621.298-6.933.44-.707.05-1.415.098-2.144.148-4.49.265-8.542-.16-12.977-.808-3.291-.134-6.578-.117-9.871-.098l-2.795.005c-2.924.005-5.848.018-8.771.03-1.992.006-3.984.01-5.975.014-4.863.011-9.725.028-14.588.049 2.5-2.5 3.979-2.235 7.39-2.249Z"/><path fill="#5A706E" d="M943 597h11v1l-6 1v2h-4v19l5 1v2h-3v-2h-2v3h13v1h-5l1 6h-10v-34Z"/><path fill="#F0EBE2" d="M371 573v2h2l1-3 7 3c-1.25 3.653-1.671 4.78-5 7-4.66.451-6.899.656-10.938-1.75-2.023-2.208-2.748-3.318-3.062-6.25 6.75-2.125 6.75-2.125 9-1Z"/><path fill="#BBBEBD" d="m860.25 661.875 2.988-.012c4.8.007 9.583.115 14.371.457l2.421.173C882 663 882 663 884 666l-41 1v-4c5.747-1.231 11.404-1.148 17.25-1.125Z"/><path fill="#F1F1F1" d="M924 577h8v89l-5 1v-4h4l-1-82-6-1v-3Z"/><path fill="#1B1816" d="M672 493c-2 2-2 2-4.813 2.063L664 495c-2.734.295-2.734.295-5 1l-1 2c-2.328.633-2.328.633-5.25 1.125l-2.89.508c-2.86.367-2.86.367-5.606.328-2.357-.194-2.357-.194-4.067 1.539L639 503l-3-1v-4l2.23-.586 2.957-.789 2.918-.773c2.842-.76 2.842-.76 5.184-1.91 3.925-1.364 7.77-1.448 11.899-1.63l2.482-.142c6.061-.304 6.061-.304 8.33.83Z"/><path fill="#B9BCBB" d="M767.203 662.504c3.677.652 7.167.303 10.86-.004 7.084-.514 13.872-.385 20.937.5l1 3-3.44-.016c-4.21-.018-8.42-.03-12.63-.039-1.823-.005-3.646-.012-5.468-.02a2670.09 2670.09 0 0 0-7.857-.023l-2.471-.015c-3.304 0-5.977.06-9.134 1.113v-4c5.416-1.134 5.416-1.134 8.203-.496Z"/><path fill="#B5BFCB" d="M773 603h14c1.028 3.085 1.046 4.897.879 8.105l-.147 2.979-.17 3.104-.158 3.138c-.13 2.558-.264 5.116-.404 7.674-3.311 1.104-5.247.927-8.688.563l-3.011-.31L773 628v-4h13v-18h-13v-3Z"/><path fill="#D3D0D0" d="m702 705 20 1v1l-19 1 9 1v1l-11 1v2h-10l2-5-14-1v-1c3.083-.03 6.167-.047 9.25-.063l2.645-.025 2.558-.01 2.349-.016c2.19.114 4.094.508 6.198 1.114v-2Z"/><path fill="#C7C4C4" d="M472 714h4v4l4 2h-51c3.6-1.8 4.593-2.251 8.3-2.23l2.464.005 2.548.038 2.514.001c4.822.035 9.42.384 14.174 1.186v-2c2.995-.872 5.636-1.108 8.75-1.063l2.422.028L472 716v-2Z"/><path fill="#C2BFBF" d="m616.375 705.875 2.5-.012c4.8.008 9.416.155 14.125 1.137l1 2-1.828.148-2.422.227-2.39.21c-2.446.43-4.208 1.201-6.36 2.415l-1-1a66.935 66.935 0 0 0-4.254-.316l-2.588-.127-2.72-.12-2.733-.13c-2.235-.107-4.47-.209-6.705-.307l1-3c4.786-1.23 9.47-1.148 14.375-1.125Z"/><path fill="#797C7C" d="m773 640 3.688.563c3.395.435 5.96.143 9.312-.563l6 1c3.668.091 7.331.059 11 0v4c-2.312.194-4.625.38-6.938.563l-3.902.316L789 646l-1-1a184.94 184.94 0 0 0-7.563-.063l-2.154.014c-1.76.012-3.522.03-5.283.049v-5Z"/><path fill="#888887" d="m765 546 2.625.563c3.427.444 6.006.064 9.375-.563l1 1c2.863.073 5.7.092 8.563.063l2.443-.014c1.998-.012 3.996-.03 5.994-.049v4l-2.266-.035-2.984-.028-2.953-.035c-2.472.087-4.424.495-6.797 1.098-2.336-.314-4.67-.65-7-1-2.674-.084-5.324-.047-8 0v-5Z"/><path fill="#F6F6F6" d="m866 599-1 2h-2l-.75 2.5c-1.437 4.024-3.274 7.72-5.25 11.5l-6-1c2.62-10.77 2.62-10.77 6.875-14.563 3.385-1.557 4.67-1.656 8.125-.437Z"/><path fill="#898987" d="m797 252 2.313.5c2.733.509 4.841.792 7.5-.125 2.187-.375 2.187-.375 5.125.688 3.682 1.127 4.666.504 8.062-1.063 2.813-.125 2.813-.125 5 0l2 5h-29l-1-5Z"/><path fill="#B9CBBF" d="M364 497h2v2h11v5h-15v-4l-2 1 1 3h-8l1-5c.957-.09.957-.09 1.934-.184l2.503-.253 2.497-.247c2.053-.105 2.053-.105 3.066-1.316Z"/><path fill="#C4C8C6" d="M854.375 567.438c6.081.594 12.074.603 18.18.5 3.259.059 6.25.437 9.445 1.062-2.519 2.519-3.521 2.305-7.016 2.45l-3.043.13-3.191.107-3.145.143c-5.05.197-9.624.136-14.605-.83-2.723.141-5.298.58-8 1l1-4c3.666-.893 6.635-.987 10.375-.563Z"/><path fill="#9DA0A0" d="M852 546c2.896-.027 5.792-.047 8.688-.063l2.474-.025c4.083-.016 7.855.058 11.838 1.088v6l-3-1a144.097 144.097 0 0 0-20-1v-5Z"/><path fill="#D5F8F8" d="M772 514h16c1.208 3.623.543 4.641-1 8l-3-2v3h-5l1-4-5-1v2h-3v-6Z"/><path fill="#BCBABA" d="m661 711-1 1 6 1v2h2v2h-14v2h-5v-3c7.625-1.125 7.625-1.125 11 0v-2l-17 1-1 2-5-1v-2c3.56-1.187 6.438-1.097 10.188-1.063l3.855.028L654 713v-2c3.133-1.044 3.99-.934 7 0Z"/><path fill="#CDCACA" d="M417 706h18l-1 2h-10l9 1v1l11 1-1 2h-29l1-3 1 2h6v-2l-2-1 1-1-4-2Z"/><path fill="#D4CBBF" d="m551.543 658.902 3.787.005c3.283.004 6.565.013 9.848.024 3.366.01 6.732.015 10.097.02 6.575.011 13.15.028 19.725.049v1c-8.673.886-17.22 1.09-25.93.963-3.73-.038-7.157.05-10.86.6-3.21.437-3.21.437-5.58-.043-2.768-.547-5.117-.547-7.93-.399l-2.96.147-3.053.17-3.11.158c-2.527.129-5.052.264-7.577.404l-1-2c8.201-.915 16.295-1.133 24.543-1.098Z"/><path fill="#0ED3D6" d="m777 611 2.313 2.5c2.441 2.84 2.441 2.84 5.687 2.5v7h-11c-.37-7.385-.37-7.385 1.5-10.5l1.5-1.5Z"/><path fill="#ACAAA9" d="M436 705h51v2h-3v2l-4 1v-2h3v-2l-22 1-1 4-4-1 1-2h2v-2c-3.105.08-6.209.194-9.313.313l-2.67.068-2.568.107-2.364.08c-2.556.53-3.313 1.587-5.085 3.432h-3l2-5Z"/><path fill="#756845" d="M773 595c2.312-.027 4.625-.046 6.938-.063l3.902-.035C787 595 787 595 788 596c.141 2.67.042 5.324 0 8l-1-2h-14v-7Z"/><path fill="#959597" d="M935 495h5l-1 79h-1l-.025-2.642c-.078-8.238-.165-16.477-.263-24.715-.05-4.235-.096-8.47-.134-12.705-.037-4.091-.083-8.183-.136-12.274-.019-1.556-.034-3.113-.045-4.67-.045-11.15-.045-11.15-2.397-21.994Z"/><path fill="#75583A" d="M855 506a90.488 90.488 0 0 1 4 4v2l3 1c-1.44 3.362-3.248 5.592-6 8h-2l-1-4-2 1c-.625-3.375-.625-3.375-1-7l2-2 1 1 2-4Z"/><path fill="#C4C1C1" d="m542 715 1 2h16l-1 3h-35l1-2c1.207.03 1.207.03 2.438.063 2.496.233 2.496.233 3.562-1.063 2.264-.032 4.511.068 6.773.16 2.517.003 2.517.003 5.227-2.16Z"/><path fill="#D4D1D2" d="M670 714h14v2l13 1v3h-19v-3l-3.438-.375L671 716l-1-2Z"/><path fill="#F3F3F3" d="M931 500h1v72h-5l1-4h3v-68Z"/><path fill="#BAB7B7" d="M701 711h4v3h-9v2h5v4h-4v-3h-14l1-4h17v-2Z"/><path fill="#464A50" d="M787 606c2 2 2 2 2.23 4.398-.298 20.67-.298 20.67-2.23 22.602-2.353.073-4.708.084-7.063.063l-3.91-.028L773 633v-3l3.625.125c4.162.144 6.003-.668 10.375-2.125v-22Z"/><path fill="#DBD8D9" d="M725 717h25v3h-42v-1l17-1v-1Z"/><path fill="#3B3D3C" d="M605 645h46v2c-1.853.198-3.708.383-5.563.563l-3.128.316c-3.309.121-3.309.121-6.762-.387-3.76-.522-6.965-.313-10.735.07-6.92.552-13.058-.04-19.812-1.562v-1Z"/><path fill="#7D7C7B" d="m745 252 2.012.254c5.383.685 5.383.685 10.738.184 3.153-.613 5.317.403 8.25 1.562v3h-20l-1-5Z"/><path fill="#3B403E" d="M944 501h11v1h-6v2h6v1h-6v6l4 1h-4v4l3 1h-2v5l-2-2v-4l-4 1 2-5-2-1v-7h2v-2l-2-1Z"/><path fill="#73767D" d="m423 681 2 1c-.474 4.262-2.847 6.287-6 9-4.148 1.376-8.38 1.125-12.703 1.098l-2.539-.005c-2.67-.005-5.339-.018-8.008-.03-1.812-.006-3.625-.01-5.438-.014-4.437-.011-8.875-.028-13.312-.049v-1l2.994-.044c3.698-.059 7.395-.136 11.093-.218 1.594-.034 3.189-.062 4.783-.084 2.304-.034 4.607-.087 6.911-.142l2.129-.02c5.016-.146 9.66-1.025 14.09-3.492 1.743-1.917 2.767-3.689 4-6Z"/><path fill="#978181" d="M852 595h24v4l-3.105-.105c-1.361-.029-2.722-.056-4.082-.082l-2.042-.077c-4.48-.065-7.165.597-10.771 3.264l1-3h-5v-4Z"/><path fill="#ADE7F4" d="M945 516h3l1 4 1-3h2v3h2v2h3v3h-13c-.098-6.152-.098-6.152 0-8l1-1Z"/><path fill="#6E7376" d="M731 390c1.48.114 2.96.241 4.438.375.823.07 1.647.14 2.496.21L740 391l1 2 1-1c2.67-.141 5.324-.042 8 0l-1 4v-3h-2l-1 3h-12l-1 2v-2h-2v-6Z"/><path fill="#19211A" d="m697 313 1.75.563c2.457.477 3.894.194 6.25-.563l-1 2h-2v2a99.185 99.185 0 0 1-5 3l-1 1c-2.333.04-4.667.042-7 0l-1 3-1-5 3-1c.733-2.015.733-2.015 1-4l1 2 5-1v-2Z"/><path fill="#20241C" d="M658 309c2.063.438 2.063.438 4 1l.367 2.59.508 3.348.492 3.34L664 322l2 1-1 3v-2c-2.652-1.075-5.284-2.095-8-3a920.276 920.276 0 0 1-.063-5.438l-.035-3.058C657 310 657 310 658 309Z"/><path fill="#ACC3B4" d="M322 505c2.333-.042 4.667-.04 7 0 1 1 1 1 1.125 4.5C330 513 330 513 329 514c-2.333.04-4.667.042-7 0v-9Z"/><path fill="#858683" d="M411 705h5c-1.195 3.368-2.698 6.566-4.313 9.75l-1.175 2.36C409 719 409 719 404 720l7-15Z"/><path fill="#969997" d="M746 705c2.355.164 2.355.164 5 1 1.363 2.398 1.363 2.398 2.313 5.375l.988 2.96C755 717 755 717 755 720h-5c-.482-1.562-.96-3.124-1.438-4.688l-.808-2.636c-.717-2.546-1.272-5.076-1.754-7.676Z"/><path fill="#191715" d="m568 430 3 1v2h-2c-.193 4.824.243 8.496 2 13-4.54-.478-4.54-.478-6.375-2.563-.925-3.606-.584-6.853.375-10.437 1.563-2 1.563-2 3-3Z"/><path fill="#C3C6C6" d="m381 632 1.75.5c2.7.6 4.57.064 7.25-.5l2 1v3c-2.729.196-5.458.382-8.188.563l-2.33.17c-4.023.258-7.543.333-11.482-.733v-3l2.152.035 2.786.028 2.777.035c2.25.161 2.25.161 3.285-1.098Z"/><path fill="#727375" d="m859 620 2 1v4h6l1-4c1.429 8.571 1.429 8.571-1 12l-3-1h2v-2h-4l1 3h-2c-1.784-3.062-2.229-5.22-2.125-8.75l.055-2.422L859 620Z"/><path fill="#0C5E2B" d="M467 254c2.063.438 2.063.438 4 1 0 2 0 2-1 6h-11v-6l3.438.063c3.378.353 3.378.353 4.562-1.063Z"/><path fill="#B4B8B7" d="m675 372 1.688.438c2.817.685 5.423.628 8.312.562v6h-2v-5h-2v5c-2.875.625-2.875.625-6 1l-2-2c.556-4.556.556-4.556 2-6Z"/><path fill="#786327" d="M863 602h2l2 6h-2c-.125 5.578-.125 5.578 1 11h-4v-11c-2.417 4.23-3.348 7.123-3 12l-3-3c1.545-5.48 4.155-10.114 7-15Z"/><path fill="#BE999B" d="M943 597h11v1l-6 1v2h-4v19l5 1v2h-3v-2h-2l1 7h-2v-31Z"/><path fill="#DDDEE2" d="M940 495c2 1.375 2 1.375 4 3v2l3 1h-4v20h-2l-.076-1.864c-.116-2.796-.239-5.59-.361-8.386l-.12-2.934-.127-2.832-.11-2.602c-.14-2.382-.14-2.382-.788-4.631L939 496l1-1Z"/><path fill="#CBCDCA" d="M949 568h18l1 4c-6.766.114-13.288-.12-20-1l1-3Z"/><path fill="#F5F1E8" d="M371 573v3l2 1h-2v5c-3.674-.306-4.781-.758-7.313-3.563L362 576c1-2 1-2 3.938-3.188C369 572 369 572 371 573Z"/><path fill="#CED4D4" d="m337.945 529.793 3.18.394 3.195.356C347 531 347 531 349 532v3c-2.062.027-4.125.046-6.188.063l-3.48.035c-2.925-.086-5.495-.42-8.332-1.098 2.267-2.82 3.257-3.948 6.945-4.207Z"/><path fill="#EAC8AA" d="M375 674c1.813 1.375 1.813 1.375 3 3v2l2 1h-3l-2.875 1.188c-3.125.812-3.125.812-6-.563L366 679c2.103-4.658 3.853-5.502 9-5Z"/><path fill="#C3BFBF" d="M416 705c2.063-.34 2.063-.34 4.57-.293l2.715.03 2.84.076 2.863.04c2.338.036 4.675.085 7.012.147l-1 2h-13v5c-2 .043-4 .04-6 0l-1-1-2 2c.547-3.375 1.055-5.082 3-8Z"/><path fill="#C0C1C0" d="M751 577h19v4c-6.433.12-12.618-.176-19-1v-3Z"/><path fill="#AAAAAC" d="M943 685h1c.74 10.48-1.49 19.917-4 30h-1l1-21 2-1c.465-1.895.465-1.895.625-4.063L943 685Z"/><path fill="#B6BBBA" d="m342.188 632.438 3.855.308L349 633v4c-2.062.027-4.125.046-6.188.063l-3.48.035c-2.925-.086-5.495-.42-8.332-1.098l1-3c3.67-1.223 6.34-.88 10.188-.563Z"/><path fill="#909292" d="M956 547v6l-13-2v-4c4.61-1.297 8.338-.711 13 0Z"/><path fill="#3A3D3D" d="m771 526 1 3h10l-2 1 1.063 2.25c.982 2.882.97 3.962-.063 6.75h-3l1-9h-4v5h-3v2h-3v-5h3v2h2v-4h-3v-4Z"/><path fill="#151211" d="M605 516c3.773.416 7.543.862 11.313 1.313l3.248.357 3.115.38 2.872.334c2.704.68 3.72 1.479 5.452 3.616-4.535 0-8.814-.344-13.313-.938l-2.052-.263c-7.612-1.005-7.612-1.005-9.635-1.799l-1-3Z"/><path fill="#1E1C1A" d="m595 426-1 3c-5.987 1.264-11.918 2.324-18 3l-1-3c2.207-.508 4.415-1.006 6.625-1.5l3.727-.844c3.32-.597 6.287-.78 9.648-.656Z"/><path fill="#CFD9E7" d="M773 624h14v4c-3.311 1.104-5.247.927-8.688.563l-3.011-.31L773 628v-4Z"/><path fill="#B4B8C4" d="M396 469a566.91 566.91 0 0 1 9.625-.25l2.738-.102c5.937-.086 9.06.514 13.637 4.352l1.875 1.375c1.713 2.474 1.32 4.707 1.125 7.625l-1.188-1.688c-3.836-4.894-6.75-7.688-12.812-9.312a130.056 130.056 0 0 0-7.875-.625l-2.086-.117c-1.68-.093-3.36-.177-5.039-.258v-1Z"/><path fill="#635B60" d="m800 390 9 2v4c-1.75.027-3.5.046-5.25.063l-2.953.035c-2.455-.086-4.459-.39-6.797-1.098v-3l6 1v-3Z"/><path fill="#828683" d="m673 390 2 2h3v-2l10 2-2 4h-13v-6Z"/><path fill="#D2D5D3" d="m571 370 2 2 4-2v5h2v-5h2l-1 9h-3l-1-2-1 2-4-1v-8Z"/><path fill="#9B9996" d="m698 372-2 10h-2l-2-8h-4v4l3 1h-4v-6c4.531-1.791 5.982-2.004 11-1Z"/><path fill="#D0CDCD" d="M440 706h19v2h-2v2h-18v-1l9-1-8-1v-1Z"/><path fill="#BAC3C1" d="m378.313 600.438 3.8.308L385 601v3h-19v-3c4.246-1.096 7.96-.929 12.313-.563Z"/><path fill="#848782" d="M629 392h14l1 4h-7l-1 2v-2h-7v-4Z"/><path fill="#818385" d="M867 640c2 1 2 1 3 2a61.64 61.64 0 0 0 4.25-.438c3.28-.408 6.439-.669 9.75-.562v4h-17v-5Z"/><path fill="#B6BAB9" d="M393 633h19v3h-19v-3Z"/><path fill="#A8D3D1" d="M948 620h12v4c-3.547 1.182-5.975.893-9.688.563l-3.574-.31L944 624v-3h2v2h3l-1-3Z"/><path fill="#939290" d="m943 501 3 1v4h-2v4l2 1-.496 3.375c-.61 4.885-.616 9.709-.567 14.625l.014 2.637c.012 2.12.03 4.242.049 6.363-2-2-2-2-2.227-5.44 0-1.47.012-2.941.032-4.412l.008-2.345c.011-2.476.037-4.952.062-7.428.01-1.677.02-3.354.027-5.031.022-4.115.057-8.23.098-12.344Z"/><path fill="#787F7B" d="M559 391h15l-1 5h-7l-1-2-1 2h-5v-5Z"/><path fill="#B4BABA" d="M380 626h20l-1 3h-19v-3Z"/><path fill="#158E43" d="m625 372 4 2v2h2v2h2c-.776-3.075-.776-3.075-3-5l5 1v5c-2 .043-4 .04-6 0l-1-1v1h-5c-.125-2.375-.125-2.375 0-5l2-2Z"/><path fill="#A6C9B4" d="M943 558h11v2h-10l1 8h2v3h-3l1 9h-2v-22Z"/><path fill="#BABDBC" d="M948 663c2.959-.08 5.916-.14 8.875-.188l2.55-.076 2.442-.029 2.254-.048L966 663l2 3h-20v-3Z"/><path fill="#B5B8B9" d="m799 663 1 3h-17v-2l-2-1c6.035-1.509 11.897-.642 18 0Z"/><path fill="#838281" d="m771 252 2.563.5c3.528.513 6.876.571 10.437.5v4h-13v-5Z"/><path fill="#B7BBBB" d="m882 663 2 3h-17v-2l-2-1c5.563-1.353 11.422-1.276 17 0Z"/><path fill="#585958" d="m679 632-1 3c-5.75.125-5.75.125-8-1l-3 1c-2.41-.05-2.41-.05-5.063-.313l-2.66-.238C657 634 657 634 655 632c8.166-.844 15.85-1.062 24 0Z"/><path fill="#514D4A" d="M372.563 556.188C375 557 375 557 377 559c.125 3.125.125 3.125 0 6l-1-3-8-1-1 4c-.36-5.411-.36-5.411 1.188-7.938C370 556 370 556 372.563 556.188Z"/><path fill="#BABFBF" d="m400 525-2 3c-3.416.29-5.738.087-9-1-2.006.293-4.007.626-6 1h-3v-3c6.874-.745 13.17-1.182 20 0Z"/><path fill="#7E7E7D" d="m709.066 251.902 2.496.036 2.504.027L716 252v2l3 1v2h-12l-1-4c1-1 1-1 3.066-1.098Z"/><path fill="#D3D0D0" d="M584 706h18c-3 2-3 2-6 2v2h-16v-1l9-1-5-1v-1Z"/><path fill="#D4D1D1" d="m616.813 705.938 2.677.013c2.17.012 4.34.03 6.51.049v1h-18v2h11v1h-18l1-3c4.915-1.292 9.773-1.111 14.813-1.063Z"/><path fill="#9E978D" d="m707 686 9 5-1 3h-18v-2l14-1-4-3v-2Z"/><path fill="#C4C7C6" d="M862 670c1.417-.027 2.833-.047 4.25-.063l2.39-.035c2.267.094 4.189.466 6.36 1.098v4l-7 1v-2h-6v-4Z"/><path fill="#C1C5C6" d="M382 640v3c-2.083.027-4.167.046-6.25.063l-3.516.035c-2.644-.08-4.732-.312-7.234-1.098v-2c13.612-1.694 13.612-1.694 17 0Z"/><path fill="#D0A317" d="M774 607h11v3h-3l-1 3-1.813-.563c-2.351-.658-2.351-.658-5.187.563-1.125-3.75-1.125-3.75 0-6Z"/><path fill="#BABFBE" d="M374 537c2.69.176 5.329.618 8 1v3c-2.083.196-4.166.381-6.25.563l-3.516.316c-2.753.103-4.654-.017-7.234-.879l1-3 3.438.063c3.378.353 3.378.353 4.562-1.063Z"/><path fill="#12100F" d="M449 503c-2 3-2 3-3.953 3.441l-2.297.122c-5.418.434-9.958 1.856-14.75 4.437l1-4c2.394-.674 4.79-1.34 7.188-2l2.04-.578c3.678-1.005 6.957-1.659 10.772-1.422Z"/><path fill="#7E7E7E" d="M538 391c2.19.09 4.378.247 6.563.438l3.628.308L551 392v4h-4v-3h-2v3h-7c-.563-1.938-.563-1.938-1-4l1-1Z"/><path fill="#B8B5B5" d="M479 710v1h-7v3h-19v2h-4v-3h18v-2c3.981-1.327 7.85-1.07 12-1Z"/><path fill="#B8BCBA" d="m342.25 639.438 3.828.308L349 640v3c-6.11.1-11.974.071-18-1v-2c3.815-1.3 7.276-.894 11.25-.563Z"/><path fill="#C4C7C5" d="M747 568h18l-2 1v2c-3.742.765-6.339 1.046-10 0l-2 1c-2.125-.438-2.125-.438-4-1v-3Z"/><path fill="#B6B9B9" d="m341.688 537.938 2.126.013c1.729.012 3.458.03 5.186.049v3c-6.213.73-11.841 1.232-18 0v-2c3.619-1.206 6.925-1.108 10.688-1.063Z"/><path fill="#1B6C38" d="M640 370h2v9h-6v-8l4 1v-2Z"/><path fill="#B0AEAD" d="M507 705h4c0 2 0 2-1.5 3.625L508 710h5v1h-18v2h-4v-2c2.882-.96 4.699-1.106 7.688-1.063l2.449.028L503 710v-2h4v-3Z"/><path fill="#515251" d="M625 632h30v3a995.39 995.39 0 0 1-5.75.063l-3.234.035c-2.579-.084-4.555-.438-7.016-1.098-1.987 0-3.974.001-5.96.031-2.743-.042-5.356-.494-8.04-1.031v-1Z"/><path fill="#C0C2BF" d="M854 577v4c-1.583.027-3.167.046-4.75.063l-2.672.035c-2.36-.09-4.323-.429-6.578-1.098v-3c9.41-1.333 9.41-1.333 14 0Z"/><path fill="#11A348" d="M615.563 369.938 618 370v2h-4v5h4v-4l4 1-2 5c-2.333.042-4.667.04-7 0-1-1-1-1-1.125-4.5.16-4.476.16-4.476 3.688-4.563Z"/><path fill="#8A8C8D" d="m844 640 2.117.254 2.758.308 2.742.317c2.4.318 2.4.318 4.383-.879v5h-12l2-1v-3l-2-1Z"/><path fill="#1D1A19" d="M684 447c4.776 1.642 8.794 4.265 13 7-3.27 1.031-5.86.964-9.25.563l-2.703-.31L683 454l1-7Z"/><path fill="#C3C3C1" d="M668 372h4l-.563 2.188c-.457 2.94-.172 4.953.563 7.812h-5c-.027-1.48-.046-2.958-.063-4.438l-.035-2.496C667 373 667 373 668 372Z"/><path fill="#B2B1AE" d="M661 370h3l2 9h-7c.875-7.875.875-7.875 2-9Z"/><path fill="#787674" d="M1020 686c0 3 0 3-1.527 5.164-3.424 2.542-5.815 2.302-10.035 2.211l-2.038-.004c-3.655-.065-5.289-.297-8.4-2.371l3.29-.078c1.444-.056 2.89-.114 4.335-.172l2.16-.043c5.25-.24 8.085-1.45 12.215-4.707Z"/><path fill="#868781" d="M852 546h10l1 4c-2.75.917-4.36 1.109-7.188 1.063L852 551v-5Z"/><path fill="#797979" d="M788 518h1v12h-3l1 3 4-1-1 5c-2.375-.625-2.375-.625-5-2-1.313-3.125-1.313-3.125-2-6h5v-11Z"/><path fill="#121919" d="m641 514 5 1c.688 1.688.688 1.688 1 4-1.438 2.75-1.438 2.75-3 5l-4-1 1-9Z"/><path fill="#1B1815" d="m528 423 4 1v2h3v-3l7 5-1 2c-8.172-.192-8.172-.192-11.563-3.5C528 424 528 424 528 423Z"/><path fill="#8F9497" d="M764 640c3.716-.2 4.772-.152 8 2v3h-11v-3h3v-2Z"/><path fill="#584A0E" d="M774 606h12v8l-5 2-1-3 2-3-2-1 5 1v-3h-11v-1Z"/><path fill="#7E8182" d="m374 591 1.625.438c3.782.895 7.839 1.33 11.375-.438v4h-15c1-3 1-3 2-4Z"/><path fill="#B9BCBB" d="M862 576c1.417-.027 2.833-.047 4.25-.063l2.39-.035c2.267.094 4.189.466 6.36 1.098v3c-4.655.838-8.37 1.016-13 0v-4Z"/><path fill="#BABCBB" d="M778 576c1.417-.027 2.833-.047 4.25-.063l2.39-.035c2.267.094 4.189.466 6.36 1.098v3c-4.655.838-8.37 1.016-13 0v-4Z"/><path fill="#BBBDBC" d="M946 576c1.417-.027 2.833-.047 4.25-.063l2.39-.035c2.267.094 4.189.466 6.36 1.098v3c-4.655.838-8.37 1.016-13 0v-4Z"/><path fill="#B3E1BF" d="M362 498c2 2 2 2 2 6h-2v-4l-2 1 1 3h-8l1-5c6.055-.977 6.055-.977 8-1Z"/><path fill="#595858" d="m365 675 3 1-2 3c2.892.826 4.887 1 8 1h4c-1.063 1.5-1.063 1.5-3 3-3.375.5-3.375.5-7 0-2.938-2.5-2.938-2.5-5-5l2-3Z"/><path fill="#929290" d="m773 640 3.688.563c3.381.442 5.97.125 9.312-.563l2 2h-6v3h-9v-5Z"/><path fill="#B5BDBD" d="m393 531 1.906.219c5.404.586 10.66.882 16.094.781l1 2h-19v-3Z"/><path fill="#6C7678" d="m957 522 1 4c-3.473 1.158-6.36 1.069-10 1l1 9-3-1 1-8h-3v-2h13v-3Z"/><path fill="#070B09" d="m333 472-2.188 1.188c-4.07 2.622-7.258 5.15-8.812 9.812l-3 1c.434-4.923 2.644-7.488 6-11 3-2.09 4.569-2.225 8-1Z"/><path fill="#7F7176" d="M655 390h2v2h6l-2 4h-9v-4h3v-2Z"/><path fill="#D9DAD8" d="M592 370h4l1 9h-6l1-9Z"/><path fill="#767575" d="M854 507h1l1 14h-2l-1-4-2 1c-.625-3.375-.625-3.375-1-7l2-2 1 1 1-3Z"/><path fill="#1C5C8A" d="M772 510a995.39 995.39 0 0 1 5.75-.063l3.234-.035c2.55.083 4.595.352 7.016 1.098v2h-16v-3Z"/><path fill="#747D79" d="m615 390 5 1v4l2 1h-10l-1-4h3l1-2Z"/><path fill="#828389" d="M327.25 471.313 329 472l-2.813 1.688C320.5 477.813 319.45 482.42 318 489h-1c-.453-6.455.25-9.688 4-15 3.122-3.122 3.122-3.122 6.25-2.688Z"/><path fill="#0D6B31" d="m496 256-1 4v-3h-2v4h-5v-6c3.623-1.208 4.641-.543 8 1Z"/><path fill="#80A19F" d="M958 603h3v16h-2c-.682-5.37-1.115-10.585-1-16Z"/><path fill="#807F7E" d="m357 591 2.082.219 2.73.281 2.708.281c2.563.263 2.563.263 5.48.219v3h-14l1-4Z"/><path fill="#B7BAB9" d="M350 538h14v3h-14v-3Z"/><path fill="#7F7E7D" d="M816 390h3l-1 6h-8v-5l6 1v-2Z"/><path fill="#3A3C3B" d="M583 645h21c-4.5 3.375-4.5 3.375-8.328 3.074l-2.422-.166-2.5-.22-2.547-.186A543.32 543.32 0 0 1 582 647l1-2Z"/><path fill="#757966" d="M499 390h2v2h6l-2 4h-9l2-1v-2l-2-1h3v-2Z"/><path fill="#BBB9B9" d="M724 711h5v3l-5-1v-2Zm-15 2h15v1h-11v2h-5l1-3Z"/><path fill="#B7BAB8" d="m770 671 1 4h-3l-3.375.063c-3.06-.053-5.666-.346-8.625-1.063l1-2c4.288-1.3 8.565-1.075 13-1Z"/><path fill="#4E4D4B" d="M377 662h1l.148 2.738.227 3.574c.07 1.172.14 2.344.21 3.551.201 3.294.201 3.294 2.415 6.137l-3 1c-2.144-2.332-2.98-3.51-3.11-6.727.12-.956.238-1.913.36-2.898l.328-2.914C376 664 376 664 377 662Z"/><path fill="#A99B58" d="M949 505h6v6c-2.49 1.245-3.41.777-6 0v-6Z"/><path fill="#7F807C" d="M702 391h8v5h-9l1-5Z"/><path fill="#858686" d="M729 390v6l-1-3h-2v3h-7v-5l3 1c5.467-2 5.467-2 7-2Z"/><path fill="#0C7635" d="m486 254 1 7h-7v-6c2.076-.553 3.844-1 6-1Z"/><path fill="#B9BCB9" d="M854 671v5l-2-1h-3.313c-3.114 0-5.681-.271-8.687-1l1-2c4.288-1.3 8.565-1.075 13-1Z"/><path fill="#DEE0DE" d="M931 548h1v24h-5l1-4h3v-20Z"/><path fill="#1B1A18" d="M560 408c-.648 1.953-.648 1.953-2 4-2.602.61-2.602.61-5.625.75l-3.04.172L547 413l-1-2a646.822 646.822 0 0 1 4.75-1.5l2.672-.844C556 408 556 408 560 408Z"/><path fill="#717875" d="M780 390c1.625 1.375 1.625 1.375 3 3v2l-3.438.375L776 396l-1 2v-7c3-1 3-1 5-1Z"/><path fill="#878786" d="M691 253h10v4h-10v-4Z"/><path fill="#43474B" d="M771 624h2v4h11v2c-3.982 1.054-6.982.841-11 0l-1 2-1-8Z"/><path fill="#1B1A17" d="m568.625 389.438 3.602.308L575 390v3l-1-2h-4l-1 4h-2v-4l-3 1c-2.188-.938-2.188-.938-4-2 2.944-1.472 5.374-.85 8.625-.563Z"/><path fill="#8C8E8E" d="M792 641h11v4h-9v-3l-2-1Z"/><path fill="#B8BEBF" d="M368 633v3h-11l1-3c3.283-1.642 6.425-.519 10 0Z"/><path fill="#B3B8B9" d="M784 568h15l-1 3h-15l1-3Z"/><path fill="#878787" d="M875 509h2c1.125 5.625 1.125 5.625 0 9l-4-2c-.125-2.375-.125-2.375 0-5l2-2Z"/><path fill="#B1AFAF" d="M496 714h4l-1 3h-11v2h-5l1-3h12v-2Z"/><path fill="#B3B0B0" d="M561 711c3.558.61 6.683 1.578 10 3l-1 3h-4v-3h-7l2-3Z"/><path fill="#C3C0C0" d="M703 707h14v3l-15-1 1-2Z"/><path fill="#BFC0C0" d="M980 662v4h-11v-3c1.458-.168 2.917-.334 4.375-.5l2.46-.281C978 662 978 662 980 662Z"/><path fill="#774C35" d="M947 603c1.5 1.313 1.5 1.313 3 3v3h-4l1 3c-.278 2.34-.605 4.676-1 7h-1a608.7 608.7 0 0 1-.125-6.313l-.07-3.55C945 606 945 606 947 603Z"/><path fill="#75CE90" d="m868 474 8 1-1 5h-7v-6Z"/><path fill="#7A7678" d="M471 392h8v4h-6l-1 2-1-6Z"/><path fill="#D1CECE" d="m602.188 710.438 2.73.308L607 711v2h-17c4.673-2.337 7.099-3.157 12.188-2.563Z"/><path fill="#B9BDBF" d="M896 662v4h-11v-3c1.458-.168 2.917-.334 4.375-.5l2.46-.281C894 662 894 662 896 662Z"/><path fill="#7F8688" d="M523 391c3.199-.089 5.927.09 9 1v4h-9v-5Z"/><path fill="#8F8F8F" d="m750 392-1 4v-3h-2l-1 3h-9c4.377-4.377 7.112-4.4 13-4Z"/><path fill="#6F746E" d="m590 390 2 1c2.098-.4 2.098-.4 4-1v6h-6v-6Z"/><path fill="#7B7B7A" d="m825 252 2 5h-7v-3l-4-1c3.196-1.065 5.657-1.074 9-1Z"/><path fill="#B5B8B7" d="m780 671 3 1 3-1c2.688.438 2.688.438 5 1l-1 2h-4v2h-2v-2h-6v-2l2-1Z"/><path fill="#D6D8D5" d="M931 647h1v19l-5 1v-4h4v-16Z"/><path fill="#858989" d="M864 640h2v5h-9l2-4 5 1v-2Z"/><path fill="#B4BBBA" d="m343 625 10 1v3h-10v-4Z"/><path fill="#675932" d="M863 602h2l-1 4h-2c-1.428 3.997-2.334 7.814-3 12l-1 2c-1.21-2.074-1.21-2.074-2-5 1.01-2.518 1.989-4.527 3.375-6.813l1.04-1.81A281.67 281.67 0 0 1 863 602Z"/><path fill="#B5BABA" d="M868 568c4.833-.083 9.237.047 14 1-2 2-2 2-5.04 2.195l-3.585-.07-3.602-.055L867 571l1-3Z"/><path fill="#C1C7C8" d="M801 568h11v3h-11v-3Z"/><path fill="#BEBBCD" d="M863 517h2c1.097 3.411.942 6.207.563 9.75l-.31 2.984L865 532h-2v-15Z"/><path fill="#A0A1A3" d="M935 495h5l-1 18h-1l-.402-3.176-.535-4.137-.264-2.091c-.391-2.997-.84-5.72-1.799-8.596Z"/><path fill="#AFADAC" d="M472 714h4l-1 3h-11v2h-5v-2c2.995-.872 5.636-1.108 8.75-1.063l2.422.028L472 716v-2Z"/><path fill="#5D5B57" d="m549.188 654.438 2.73.308L554 655v2h-13v-2c3.2-1.067 4.885-.948 8.188-.563Z"/><path fill="#7C746A" d="M529 654h15l-3 1v2l-13-1 1-2Z"/><path fill="#828283" d="M944 640c2.34.287 4.674.62 7 1l1 4h-8c-.563-1.938-.563-1.938-1-4l1-1Z"/><path fill="#B8BCBC" d="M331 626h11v3h-11v-3Z"/><path fill="#77738C" d="M949 512a99.984 99.984 0 0 1 5 0c1 1 1 1 1.063 4.063L955 519h-2l-1-2-3-1v-4Z"/><path fill="#8A8F91" d="M752 392h9l-1 4h-8v-4Z"/><path fill="#C2C4C4" d="M582 373c1.675.286 3.344.618 5 1v5h-5a88.406 88.406 0 0 1-1-5l1-1Z"/><path fill="#C7C7C4" d="M604 372c2.063.438 2.063.438 4 1v6h-5c-.043-2-.04-4 0-6l1-1Z"/><path fill="#BABDBA" d="M383 640h10v3h-10v-3Z"/><path fill="#513E3D" d="m852 595 13 3-4 1c-1.69.96-3.362 1.954-5 3l1-3h-5v-4Z"/><path fill="#74CF93" d="M877 475h6v5h-6v-5Z"/><path fill="#283529" d="M614 372h9v3l-5-2v4h-4v-5Z"/><path fill="#0C672F" d="M472 256h7l-1 5h-5l-1-5Z"/><path fill="#A5A3A3" d="m626 717 11 1v2h-12l1-3Z"/><path fill="#717372" d="M412 707h2c-.418 5.71-2.575 8.61-6 13l-1-2c1.281-3.844 3.157-7.399 5-11Z"/><path fill="#B4B6B5" d="M946 672h13l-1 2h-4v2h-2v-2h-6v-2Z"/><path fill="#C1C4C3" d="M395 538h9v3h-10l1-3Z"/><path fill="#1B1715" d="M672 513c6.625-.25 6.625-.25 10 2-3.782 1.837-5.946 2.158-10 1v-3Z"/><path fill="#3B3F40" d="m664 369 5 1-2 12-1-2-2-1h2l-2-10Z"/><path fill="#6A6A69" d="M688.875 629.75c3.179.07 5.421.447 8.125 2.25l-3.313.438c-3.618.445-3.618.445-6.687 1.562-2.188-.938-2.188-.938-4-2 2-2 2-2 5.875-2.25Z"/><path fill="#B7BBBB" d="M370 626h8l1 3h-10l1-3Z"/><path fill="#B7BDBD" d="m356 625 7 1-1 3h-8l2-4Z"/><path fill="#806463" d="M791 503v4h-4l-1 2h-2c.375-2.438.375-2.438 1-5 2-1 2-1 6-1Z"/><path fill="#ADABB0" d="M389 497h2v2l3 1v4h-5v-7Z"/><path fill="#67C984" d="M857 473h3l1 2h2v5l-5-2-1 2v-7Z"/><path fill="#DBDDDB" d="M692 373h5l-1 9h-2l-2-9Z"/><path fill="#149B47" d="M650 373h5v6h-5v-6Z"/><path fill="#0C7B36" d="M459 255h6l1 5-1-3h-2l-1 3-3 1v-6Z"/><path fill="#BCBAB9" d="M532.563 716.938 535 717l-1 3h-11l1-2c1.207.03 1.207.03 2.438.063 3.038-.075 3.086-1.051 6.125-1.125Z"/><path fill="#8C8F96" d="m423 681 2 1c-.472 4.248-2.967 6.2-6 9l-1-3c1.875-2.563 1.875-2.563 4-5l1-2Z"/><path fill="#ACB0AF" d="m354.82 639.805 3.305.07 3.32.055L364 640v2l-2.875-.063c-3.032-.163-3.032-.163-5.125 1.063-2.008-.281-4.01-.61-6-1 2-2 2-2 4.82-2.195Z"/><path fill="#C8C9CA" d="M359 600h6v4h-6v-4Z"/><path fill="#BBC0BD" d="M924 577h8v3c-3.053.981-4.947.981-8 0v-3Z"/><path fill="#B6B9B6" d="M384 538h9v3c-1.938.563-1.938.563-4 1l-1-1a99.984 99.984 0 0 0-5 0l1-3Z"/><path fill="#AEB6B8" d="M358 531h10l-1 4-10-1 1-3Z"/><path fill="#ADB4B2" d="M370 532h13v2c-8.429 1.286-8.429 1.286-13 0v-2Z"/><path fill="#1C221A" d="M689 324c2.007.287 4.009.619 6 1l-2 4-3-1c-2.143.39-2.143.39-4 1 1.875-3.875 1.875-3.875 3-5Z"/><path fill="#A3A1A1" d="M507 717h4l-1 3h-11v-2c5.75-.125 5.75-.125 8 1v-2Z"/><path fill="#BCBABA" d="M673 716h9c-3.323 3.938-3.323 3.938-6.75 4.25L673 720v-4Z"/><path fill="#B9B6B6" d="M444 711h4v3h-16v-1l2.371-.184 3.067-.254c1.009-.08 2.018-.162 3.058-.246 2.44-.048 2.44-.048 3.504-1.316Z"/><path fill="#B5BBB9" d="M370 633c3.375-.188 3.375-.188 7 0l2 3c-3.325 1.108-5.622.845-9 0v-3Z"/><path fill="#715858" d="M855 602c1.433 2.867.56 4.893 0 8v4h-4c.66-2.846 1.517-5.523 2.563-8.25l.816-2.14L855 602Z"/><path fill="#ABB0AD" d="m336.262 530.926 2.425.386 2.45.364L343 532v2c-4.316.762-7.744 1.16-12 0 1.725-2.172 2.423-2.981 5.262-3.074Z"/><path fill="#8C8882" d="m707 686 9 5-1 3h-5l1-3-2-1.375-2-1.625v-2Z"/><path fill="#CDD1CD" d="m862 662 5 2v2h-9l4-4Z"/><path fill="#BAC1C3" d="M404 633h8v3h-8v-3Z"/><path fill="#614949" d="M871 601c3.105 2.54 3.985 5.174 5 9v4h-3l-.184-1.828-.254-2.422c-.08-.789-.162-1.578-.246-2.39-.292-2.184-.737-4.237-1.316-6.36Z"/><path fill="#88888A" d="M870 547h5v6l-5-2v-4Z"/><path fill="#B7B9B8" d="M331 545h8v3h-8v-3Z"/><path fill="#F5F5F5" d="M944 527h3v9l-2 1c-1.607-3.215-1.057-6.436-1-10Z"/><path fill="#ADB5B3" d="M343 525h10v2l-10 1v-3Z"/><path fill="#B4B9B8" d="M331 525h11v2c-7.625 1-7.625 1-11 1v-3Z"/><path fill="#624241" d="m769 503 6 1v6l-3-1h2v-3l-5 1v-4Z"/><path fill="#C8CBD5" d="M418 472c2.27.391 3.834.887 5.75 2.188 1.793 2.599 1.455 4.735 1.25 7.812-2.489-3.235-4.754-6.593-7-10Z"/><path fill="#C7CBCB" d="M781.188 662.938 783 664v2h-9c2.19-3.285 3.324-4.718 7.188-3.063Z"/><path fill="#B5B8B2" d="m769 664-10 3v-4c4.534-1.03 5.645-1.178 10 1Z"/><path fill="#B7BBBA" d="M394 640h11v2c-1.457.195-2.916.38-4.375.563l-2.46.316C396 643 396 643 394 642v-2Z"/><path fill="#BEC2C1" d="m969 576 7 1v3h-7v-4Z"/><path fill="#838282" d="M788 547h7v4h-7v-4Z"/><path fill="#C8CCCB" d="M351 531h5v4h-6l1-4Z"/><path fill="#414542" d="m325 506 3 1v4l-4 1-1-5 2-1Z"/><path fill="#8C8D8F" d="M679 392h9l-2 4-5-1v-2l-2-1Z"/><path fill="#ADAAA6" d="M1020 686c0 3 0 3-1.563 5.188-3.246 2.414-5.488 2.116-9.437 1.812a276.294 276.294 0 0 1 7.188-4.625l2.167-1.352L1020 686Z"/><path fill="#513B3B" d="M873 595h3v4c-1.458.054-2.916.093-4.375.125l-2.46.07C867 599 867 599 865 597h8v-2Z"/><path fill="#BDC0BD" d="m885 576 7 1v3h-7v-4Z"/><path fill="#BFBDBC" d="m801 576 7 1v3h-7v-4Z"/><path fill="#B9BAB7" d="M751 577h9l-2 3c-3.625.188-3.625.188-7 0v-3Z"/><path fill="#48706F" d="M779 530c1.461 2.923 2.341 4.925 3 8l-4 1 1-9Z"/><path fill="#B6BBBC" d="m377 524 2 4-10-1 1-2c2.322-.407 4.657-.744 7-1Z"/><path fill="#5B4F2D" d="M944 501h3v10l-3-1v-6h2v-2l-2-1Z"/><path fill="#6AC78B" d="M364 497h2l1 7-4-1 1-6Z"/><path fill="#8C9098" d="m582 390 1 3h-2v2l2 1h-7l2-4h4v-2Z"/><path fill="#139F47" d="M644 373h5l-1 6h-4v-6Z"/><path fill="#C8CCCA" d="M371 600c2 2 2 2 2 4h-7v-3c2.375-.625 2.375-.625 5-1Z"/><path fill="#884441" d="M944 597h10v1l-6 1v2h-4v-4Z"/><path fill="#6C5E60" d="m954 527 1 3 6-1v4l-7-1v-5Z"/><path fill="#B2BAB9" d="m355 524 8 1c-1.125 1.563-1.125 1.563-3 3-3.188-.313-3.188-.313-6-1l1-3Z"/><path fill="#858888" d="M804 392h5v4h-6l1-4Z"/><path fill="#D3D6D5" d="m660 373 1 3 5 1v2h-7l1-6Z"/><path fill="#8E8E8C" d="m785 253 6 1 1 3h-7v-4Z"/><path fill="#989796" d="M460 705h3v2h-2l-1 4-4-1c1.813-2.5 1.813-2.5 4-5Z"/><path fill="#7B756D" d="M719 691v2h8v1h-12l-1-2c2-1 2-1 5-1Z"/><path fill="#2E3131" d="M366 664h1l2 10-3 1v-11Z"/><path fill="#777A7A" d="m764 640 1 2h2v3h-6v-3h3v-2Z"/><path fill="#CDC9C3" d="m383 499 2 1 3-1v5h-5v-5Z"/><path fill="#969A98" d="m665 391 5 1v4h-6l1-5Z"/><path fill="#859089" d="M615 390h1v6l-5-1v-3h3l1-2Z"/><path fill="#575B5A" d="m538 391 5 2v2l-5 1c-.563-1.938-.563-1.938-1-4l1-1Z"/><path fill="#10AD4C" d="m630 373 5 1v5h-5l1-3v2h2c-.776-3.075-.776-3.075-3-5Z"/><path fill="#4D4948" d="M688 374h4l1 5-5-1v-4Z"/><path fill="#177F3F" d="m618 373 4 1-2 5-6-1 4-1v-4Z"/><path fill="#A9ACAA" d="M592 370h4l-1 6h-3v-6Z"/><path fill="#45423E" d="M672 371h3l-2 10-1-3-3-1 2-1c.656-2.527.656-2.527 1-5Z"/><path fill="#9B9B9A" d="m724 253 4 2 1-2h2v4h-7v-4Z"/><path fill="#BAB8B8" d="M677 711h5l1 3h-8l2-1v-2Z"/><path fill="#CEC8BF" d="m375 675 3 2v2l2 1h-3c-1.34.306-2.675.635-4 1l2-6Z"/><path fill="#BBBEBB" d="M885 671h7l-1 4-6-1v-3Z"/><path fill="#BFC3C2" d="m970 670 6 2-1 2h-6l1-4Z"/><path fill="#BCBABA" d="M801 671h7l-1 4-6-1v-3Z"/><path fill="#BBBFBD" d="m831 662 5 1v3h-5v-4Z"/><path fill="#839899" d="M943 620h5l1 3h-3v-2h-2l1 7h-2v-8Z"/><path fill="#E7E5DB" d="m374 572 7 3-1 3-2-2c-2.57-.648-2.57-.648-5-1l1-3Z"/><path fill="#C0C6C7" d="m967 568 1 4-8-1v-2c2.463-1.231 4.28-1.072 7-1Z"/><path fill="#9B9C9D" d="M943 547h5v4h-5v-4Z"/><path fill="#6C4442" d="m791 532-1 5-5-2c2.625-3 2.625-3 6-3Z"/><path fill="#201F1D" d="M559 415h9l-1 3h-6v-2l-2-1Z"/><path fill="#CDCDCB" d="M668 378h4v4h-5l1-4Z"/><path fill="#989897" d="M766 254v3h-7v-3c4.75-1.125 4.75-1.125 7 0Z"/><path fill="#B8BDBC" d="m915 662 5 1v3h-5v-4Z"/><path fill="#B8BCBA" d="m747 662 5 1-1 3h-4v-4Z"/><path fill="#B0B4B3" d="M331 647h8l1 2-8 1-1-3Z"/><path fill="#B0B5B2" d="M365 640h9v2c-3.378.845-5.675 1.108-9 0v-2Z"/><path fill="#1F7FCE" d="M946 613h3v6h-3v-6Z"/><path fill="#929392" d="M357 591c1.938.313 1.938.313 4 1l1 3h-6l1-4Z"/><path fill="#BFC1BF" d="M855 577h6v3l-5 1-1-4Z"/><path fill="#EEB855" d="M871 511v6l-5-3c2.75-3 2.75-3 5-3Z"/><path fill="#A8DEB3" d="M349 497h4l-1 7h-2l-1-7Z"/><path fill="#84878D" d="M657 392h6l-2 4-4-1v-3Z"/><path fill="#7A8586" d="M501 392h6l-2 4-4-1v-3Z"/><path fill="#898A85" d="M459 392h5v4h-5v-4Z"/><path fill="#737C7E" d="M453 392h5l-2 4-4-1 1-3Z"/><path fill="#10A14B" d="M636 371h2l1 7-3 1v-8Z"/><path fill="#0C8539" d="m446 254 4 1h-2v2l2 1h-2v3h-2v-7Z"/><path fill="#7F817E" d="M756 640h4v5h-4v-5Z"/><path fill="#B2BCBB" d="m388 632 4 1v3h-5l-1-2h2v-2Z"/><path fill="#BCC2C2" d="M358 538h6v3h-5l-1-3Z"/><path fill="#653735" d="M769 532h3v2l2 1h-2v2h-3v-5Z"/><path fill="#5F4E50" d="M947 526h1l1 10-3-1 1-9Z"/><path fill="#61566E" d="m859 511 6 1v3l-6 1 2-3-2-2Z"/><path fill="#EAB252" d="m857 511 5 2c-1.375 1.5-1.375 1.5-3 3h-2v-5Z"/><path fill="#3E706E" d="M778 501h4v4l-3 1-1-5Z"/><path fill="#959792" d="M606 392h3v6h-3v-6Z"/><path fill="#9C938A" d="M689 392h5v4h-5v-4Z"/><path fill="#C0C4CF" d="m598 372 4 2-2 5h-2v-7Z"/><path fill="#979695" d="m732 253 5 1v3h-5v-4Z"/><path fill="#60605E" d="m763 253-4 1v3h-2v-3l-2-1c2.862-1.43 4.934-.6 8 0Z"/></svg>